<svg width="62" height="62" viewBox="0 0 62 62" fill="none" xmlns="http://www.w3.org/2000/svg">
<circle cx="31" cy="31" r="31" fill="#C6E5D1"/>
<g clip-path="url(#clip0_319_191)">
<path d="M41.033 19.793C40.7035 19.0676 40.2706 18.3915 39.6711 17.8686C39.0767 17.3452 38.2839 16.9954 37.395 17C36.9414 16.9996 36.5131 17.0951 36.1342 17.2599C35.4683 17.5497 34.9657 18.031 34.5803 18.5469C34.0035 19.3242 33.662 20.2014 33.4451 20.8937C33.3874 21.0801 33.3394 21.2518 33.2992 21.4064H31.7103H30.2893H28.6999C28.5836 20.9518 28.393 20.3357 28.0949 19.6942C27.8055 19.08 27.4193 18.4389 26.8558 17.9151C26.5743 17.6544 26.2453 17.4241 25.8654 17.2598C25.4865 17.0951 25.0578 16.9995 24.6046 17C23.7208 16.9953 22.9303 17.3355 22.334 17.85C21.4346 18.6263 20.8998 19.7316 20.5495 20.8748C20.2038 22.0225 20.0566 23.2233 20.0557 24.2488C20.0557 25.8123 20.0557 31.9239 20.0557 34.1982C20.0561 35.0686 20.1914 36.1503 20.5269 37.3096C21.0308 39.0439 21.9917 40.96 23.6807 42.4617C25.3657 43.9652 27.7834 45.0055 30.9996 44.9999C33.1442 45.0008 34.9335 44.5454 36.3876 43.7889C38.5732 42.6546 39.972 40.8668 40.8065 39.0821C41.6432 37.2901 41.9417 35.5009 41.944 34.1981C41.944 31.9239 41.944 25.8123 41.944 24.2487C41.9399 22.9256 41.6856 21.2485 41.033 19.793ZM40.2384 34.1982C40.2388 34.8908 40.1253 35.8346 39.8345 36.8342C39.3989 38.3377 38.5709 39.9595 37.1869 41.1856C35.7992 42.4105 33.8595 43.2887 30.9996 43.2942C29.0932 43.2934 27.5961 42.8964 26.3985 42.2757C24.6065 41.3444 23.4569 39.8875 22.7374 38.3581C22.2723 37.3705 22.0009 36.3551 21.8675 35.4774C22.5547 35.4774 23.7528 35.4774 25.3989 35.4774C28.1028 35.4774 29.9054 32.8751 29.9054 30.772C29.9054 29.1544 29.9054 24.9627 29.9054 23.1116H30.2894H31.7104H34.711L34.8264 22.3953C34.8277 22.3727 35.0119 21.327 35.4715 20.3713C35.6982 19.8936 35.9926 19.4459 36.3175 19.1534C36.4804 19.0057 36.6474 18.895 36.8205 18.8211C36.9954 18.7473 37.1772 18.7061 37.395 18.7057C37.8566 18.7103 38.2008 18.8571 38.5529 19.1566C39.0754 19.6005 39.5323 20.4464 39.817 21.4096C40.1073 22.3676 40.2397 23.4291 40.2384 24.2487C40.2384 25.8123 40.2384 31.9239 40.2384 34.1982Z" fill="#266B48"/>
<path d="M30.8573 36.1876C29.6016 36.1876 28.5835 36.9519 28.5835 37.8933C28.5835 38.8353 29.6016 39.599 30.8573 39.599C32.1135 39.599 33.1316 38.8353 33.1316 37.8933C33.1316 36.9519 32.1136 36.1876 30.8573 36.1876Z" fill="#266B48"/>
<path d="M35.2637 32.0661C36.0488 32.0661 36.6852 31.4297 36.6852 30.6446C36.6852 29.8596 36.0488 29.2232 35.2637 29.2232C34.4787 29.2232 33.8423 29.8596 33.8423 30.6446C33.8423 31.4297 34.4787 32.0661 35.2637 32.0661Z" fill="#266B48"/>
<path d="M37.3481 20.8849C36.4011 20.8849 36.2109 22.8749 36.2109 22.8749H38.296C38.296 22.8749 38.295 20.8849 37.3481 20.8849Z" fill="#266B48"/>
</g>
<defs>
<clipPath id="clip0_319_191">
<rect width="28" height="28" fill="white" transform="translate(17 17)"/>
</clipPath>
</defs>
</svg>
