<svg width="83" height="94" viewBox="0 0 83 94" fill="none" xmlns="http://www.w3.org/2000/svg">
<circle cx="41.5" cy="41.5" r="41.5" fill="white"/>
<path fill-rule="evenodd" clip-rule="evenodd" d="M27.7101 25.419C27.7103 25.4187 27.7106 25.4184 26.9117 24.7373L27.7106 25.4184C27.7102 25.4188 27.7098 25.4192 27.7095 25.4197C27.32 25.8751 26.6352 25.9292 26.179 25.5404C25.7224 25.1511 25.6678 24.4654 26.057 24.0088L26.8838 24.7136C26.057 24.0088 26.0573 24.0084 26.0576 24.0081L26.0584 24.0072L26.0603 24.005L26.0657 23.9987C26.0699 23.9938 26.0756 23.9872 26.0827 23.9792C26.0968 23.9631 26.1164 23.9408 26.1415 23.9129C26.1918 23.857 26.264 23.7781 26.3577 23.6797C26.545 23.4829 26.8186 23.2073 27.1744 22.8793C27.8853 22.2239 28.9289 21.3552 30.2736 20.4872C32.9603 18.753 36.8839 17 41.7678 17C46.6535 17 50.5255 18.7543 53.1622 20.493C54.4812 21.3629 55.4987 22.2336 56.1899 22.8907C56.5359 23.2196 56.8012 23.496 56.9828 23.6936C57.0737 23.7924 57.1436 23.8716 57.1924 23.9279C57.2168 23.956 57.2358 23.9784 57.2496 23.9947C57.2564 24.0029 57.2619 24.0095 57.2661 24.0146L57.2714 24.0209L57.2733 24.0232L57.274 24.0241C57.2743 24.0245 57.2746 24.0249 56.4344 24.7136L57.2746 24.0249C57.655 24.4889 57.5872 25.1734 57.1231 25.5538C56.6596 25.9338 55.976 25.8665 55.5954 25.4037C55.5952 25.4035 55.5951 25.4033 55.5949 25.4031C55.5947 25.4029 55.5944 25.4026 55.5942 25.4023L55.5931 25.401C55.5918 25.3994 55.5899 25.3972 55.5876 25.3944C55.5802 25.3856 55.5676 25.3708 55.5499 25.3504C55.5146 25.3096 55.4589 25.2464 55.3831 25.164C55.2316 24.9992 55.0004 24.7579 54.6928 24.4655C54.077 23.88 53.1592 23.0939 51.9659 22.307C49.5779 20.7322 46.1166 19.1728 41.7678 19.1728C37.4171 19.1728 33.8987 20.7334 31.452 22.3128C30.23 23.1016 29.2842 23.8896 28.6472 24.4769C28.3291 24.7701 28.0892 25.0123 27.9315 25.1779C27.8526 25.2607 27.7945 25.3243 27.7575 25.3654C27.739 25.386 27.7258 25.401 27.7179 25.41C27.714 25.4144 27.7114 25.4174 27.7102 25.4188L27.7101 25.419Z" fill="#197A20"/>
<path d="M66.0725 38.3331C68.8148 36.2395 65.0559 29.867 62.4342 25.0933C59.2114 20.872 57.6127 20.5808 54.4017 23.0465C50.2342 26.2466 49.9329 26.7189 53.1557 30.9402C56.3785 35.1615 63.3303 40.4267 66.0725 38.3331Z" fill="#197A20"/>
<path d="M16.0871 38.3405C13.3449 36.2469 17.1038 29.8744 19.7255 25.1007C22.9483 20.8795 24.547 20.5882 27.7579 23.0539C31.9254 26.2541 32.2268 26.7264 29.004 30.9477C25.7811 35.169 18.8294 40.4341 16.0871 38.3405Z" fill="#197A20"/>
<path fill-rule="evenodd" clip-rule="evenodd" d="M40.084 46.2247C40.084 45.5947 40.5947 45.084 41.2247 45.084C41.2338 45.084 41.2429 45.0841 41.2519 45.0843C41.261 45.0841 41.2701 45.084 41.2792 45.084C41.9092 45.084 42.4199 45.5947 42.4199 46.2247C42.4199 47.8985 42.809 49.0816 43.4624 49.7214C44.0448 50.2917 45.1127 50.6855 47.1705 50.122C47.7781 49.9556 48.4056 50.3134 48.572 50.921C48.7384 51.5286 48.3807 52.1561 47.773 52.3225C45.2679 53.0084 43.2394 52.6961 41.8663 51.3515C41.6346 51.1247 41.4307 50.8768 41.2519 50.6117C41.0732 50.8768 40.8693 51.1247 40.6376 51.3515C39.2645 52.6961 37.236 53.0084 34.7309 52.3225C34.1232 52.1561 33.7655 51.5286 33.9319 50.921C34.0983 50.3134 34.7258 49.9556 35.3334 50.122C37.3912 50.6855 38.4591 50.2917 39.0415 49.7214C39.6949 49.0816 40.084 47.8985 40.084 46.2247Z" fill="#3C8F42" fill-opacity="0.5"/>
<path d="M35.6839 43.7803C35.6839 45.6103 38.2375 47.0938 41.3876 47.0938C44.5377 47.0938 47.0913 45.6103 47.0913 43.7803C47.0913 41.9502 44.5377 40.4667 41.3876 40.4667C38.2375 40.4667 35.6839 41.9502 35.6839 43.7803Z" fill="#197A20"/>
<path d="M35.0325 36.1211C35.0325 37.6213 33.8164 38.8373 32.3163 38.8373C30.8162 38.8373 29.6001 37.6213 29.6001 36.1211C29.6001 34.621 30.8162 33.4049 32.3163 33.4049C33.8164 33.4049 35.0325 34.621 35.0325 36.1211Z" fill="black"/>
<path d="M52.5237 36.1211C52.5237 37.6213 51.3077 38.8373 49.8075 38.8373C48.3074 38.8373 47.0913 37.6213 47.0913 36.1211C47.0913 34.621 48.3074 33.4049 49.8075 33.4049C51.3077 33.4049 52.5237 34.621 52.5237 36.1211Z" fill="black"/>
<path fill-rule="evenodd" clip-rule="evenodd" d="M29.0268 54.4382C29.0271 54.4384 29.0274 54.4387 28.3188 55.2168L29.0274 54.4387C29.0269 54.4382 29.0263 54.4378 29.0258 54.4373C28.5821 54.0348 27.8961 54.0674 27.4926 54.5105C27.0886 54.9541 27.1208 55.6413 27.5644 56.0452L28.2959 55.242C27.5644 56.0452 27.5648 56.0456 27.5651 56.0459L27.5659 56.0466L27.5679 56.0484L27.5733 56.0533C27.5776 56.0571 27.5831 56.062 27.5898 56.068C27.6034 56.08 27.6219 56.0964 27.6455 56.1167C27.6926 56.1574 27.7596 56.2141 27.8461 56.2847C28.0192 56.4258 28.2704 56.6222 28.5962 56.8554C29.2475 57.3215 30.1993 57.9362 31.4225 58.5491C33.8683 59.7746 37.4138 61 41.8118 61C46.211 61 49.7098 59.774 52.1109 58.5448C53.3112 57.9304 54.2398 57.3139 54.8738 56.8461C55.191 56.612 55.435 56.4147 55.6031 56.2727C55.6872 56.2018 55.7523 56.1446 55.7981 56.1035C55.821 56.0829 55.8391 56.0664 55.8524 56.0542C55.855 56.0518 55.8574 56.0496 55.8596 56.0475C55.8631 56.0443 55.8661 56.0415 55.8686 56.0392L55.874 56.0341L55.8768 56.0315C55.8772 56.0311 55.8775 56.0308 55.169 55.2827L55.8775 56.0308C56.3132 55.6182 56.3319 54.9306 55.9193 54.4949C55.5072 54.0598 54.8208 54.0406 54.3851 54.4516C54.3849 54.4518 54.3847 54.452 54.3845 54.4521L54.384 54.4526C54.3838 54.4528 54.3836 54.453 54.3834 54.4532L54.3797 54.4566C54.3738 54.462 54.3632 54.4717 54.3479 54.4854C54.3174 54.5128 54.2684 54.5559 54.2012 54.6127C54.0667 54.7262 53.8599 54.8938 53.5836 55.0978C53.0306 55.5058 52.2019 56.0573 51.1208 56.6107C48.959 57.7174 45.7984 58.8272 41.8118 58.8272C37.824 58.8272 34.6116 57.7167 32.3959 56.6065C31.2883 56.0515 30.4335 55.4983 29.8608 55.0884C29.5746 54.8836 29.3596 54.7151 29.2193 54.6007C29.1492 54.5435 29.0978 54.5 29.0656 54.4722C29.0496 54.4583 29.0383 54.4484 29.0319 54.4427C29.0287 54.4399 29.0267 54.4381 29.026 54.4374L29.0263 54.4378L29.0268 54.4382Z" fill="#197A20"/>
<path fill-rule="evenodd" clip-rule="evenodd" d="M29.0268 54.4382C29.0271 54.4384 29.0274 54.4387 28.3188 55.2168L29.0274 54.4387C29.0269 54.4382 29.0263 54.4378 29.0258 54.4373C28.5821 54.0348 27.8961 54.0674 27.4926 54.5105C27.0886 54.9541 27.1208 55.6413 27.5644 56.0452L28.2959 55.242C27.5644 56.0452 27.5648 56.0456 27.5651 56.0459L27.5659 56.0466L27.5679 56.0484L27.5733 56.0533C27.5776 56.0571 27.5831 56.062 27.5898 56.068C27.6034 56.08 27.6219 56.0964 27.6455 56.1167C27.6926 56.1574 27.7596 56.2141 27.8461 56.2847C28.0192 56.4258 28.2704 56.6222 28.5962 56.8554C29.2475 57.3215 30.1993 57.9362 31.4225 58.5491C33.8683 59.7746 37.4138 61 41.8118 61C46.211 61 49.7098 59.774 52.1109 58.5448C53.3112 57.9304 54.2398 57.3139 54.8738 56.8461C55.191 56.612 55.435 56.4147 55.6031 56.2727C55.6872 56.2018 55.7523 56.1446 55.7981 56.1035C55.821 56.0829 55.8391 56.0664 55.8524 56.0542C55.855 56.0518 55.8574 56.0496 55.8596 56.0475C55.8631 56.0443 55.8661 56.0415 55.8686 56.0392L55.874 56.0341L55.8768 56.0315C55.8772 56.0311 55.8775 56.0308 55.169 55.2827L55.8775 56.0308C56.3132 55.6182 56.3319 54.9306 55.9193 54.4949C55.5072 54.0598 54.8208 54.0406 54.3851 54.4516C54.3849 54.4518 54.3847 54.452 54.3845 54.4521L54.384 54.4526C54.3838 54.4528 54.3836 54.453 54.3834 54.4532L54.3797 54.4566C54.3738 54.462 54.3632 54.4717 54.3479 54.4854C54.3174 54.5128 54.2684 54.5559 54.2012 54.6127C54.0667 54.7262 53.8599 54.8938 53.5836 55.0978C53.0306 55.5058 52.2019 56.0573 51.1208 56.6107C48.959 57.7174 45.7984 58.8272 41.8118 58.8272C37.824 58.8272 34.6116 57.7167 32.3959 56.6065C31.2883 56.0515 30.4335 55.4983 29.8608 55.0884C29.5746 54.8836 29.3596 54.7151 29.2193 54.6007C29.1492 54.5435 29.0978 54.5 29.0656 54.4722C29.0496 54.4583 29.0383 54.4484 29.0319 54.4427C29.0287 54.4399 29.0267 54.4381 29.026 54.4374L29.0263 54.4378L29.0268 54.4382Z" fill="#197A20"/>
<path fill-rule="evenodd" clip-rule="evenodd" d="M34.5776 53C34.5215 53.0856 34.4657 53.1721 34.4101 53.2594C33.1993 55.161 32.0612 57.5277 31.0001 60.2322C28.8775 65.6416 27.0261 72.4966 25.5198 79.9028C25.4097 80.444 25.7592 80.972 26.3004 81.082C26.8416 81.1921 27.3696 80.8426 27.4796 80.3014C28.9733 72.9576 30.797 66.2251 32.8619 60.9627C33.8944 58.3312 34.9782 56.0909 36.0971 54.3335C36.2605 54.077 36.4237 53.8322 36.5866 53.599C35.8444 53.4335 35.1687 53.2316 34.5776 53ZM46.1019 53.6654C48.756 57.4693 51.5734 64.4172 54.4333 75.4713C53.6992 77.8306 52.476 82.4452 52.1064 86.5115C51.9801 87.9005 51.936 89.2051 52.143 90.303C52.355 91.4276 52.8545 92.448 53.8948 93.0813C54.891 93.6877 56.2031 93.8248 57.787 93.6424C59.3863 93.4582 61.404 92.931 63.9326 92.0459C65.0356 91.6599 65.9139 91.1375 66.538 90.458C67.1754 89.764 67.5058 88.9503 67.5685 88.0784C67.6885 86.407 66.8205 84.639 65.6642 83.0308C63.32 79.7706 59.2227 76.4012 56.1937 74.2953C53.512 64.0793 50.8167 57.2145 48.1371 53.1068C47.5317 53.3246 46.8476 53.5129 46.1019 53.6654ZM56.1446 76.7198C55.4318 79.1278 54.4196 83.1567 54.0982 86.6926C53.9744 88.0536 53.956 89.124 54.1084 89.9324C54.2557 90.714 54.5376 91.1311 54.9347 91.3729C55.376 91.6415 56.1576 91.8168 57.5582 91.6555C58.9433 91.496 60.8006 91.0232 63.2719 90.1582C64.1689 89.8443 64.7281 89.4719 65.065 89.1051C65.3885 88.7529 65.5424 88.3689 65.5736 87.9352C65.6411 86.9951 65.134 85.7194 64.0404 84.1984C62.15 81.5694 58.9159 78.7611 56.1446 76.7198Z" fill="#DF825A"/>
</svg>
