<svg width="62" height="62" viewBox="0 0 62 62" fill="none" xmlns="http://www.w3.org/2000/svg">
<circle cx="31" cy="31" r="31" fill="#C6E5D1"/>
<path d="M31.001 34.4336L31.9434 33.7111C31.7187 33.4179 31.3704 33.2461 31.001 33.2461C30.6317 33.2461 30.2834 33.4179 30.0586 33.7111L31.001 34.4336ZM26.0753 36.8545L26.0789 35.667C26.0706 35.667 26.0623 35.667 26.054 35.6672L26.0753 36.8545ZM25.3739 24.7848L25.4902 25.9666C25.8713 25.929 26.2109 25.7101 26.4023 25.3785C26.5937 25.0469 26.6135 24.6433 26.4554 24.2945L25.3739 24.7848ZM36.6281 24.7848L35.5466 24.2945C35.3886 24.6433 35.4083 25.0469 35.5998 25.3785C35.7912 25.7101 36.1308 25.929 36.5119 25.9666L36.6281 24.7848ZM35.9267 36.8545L35.9481 35.6672C35.9399 35.667 35.9315 35.667 35.9231 35.667L35.9267 36.8545ZM32.1885 34.4336C32.1885 33.7778 31.657 33.2461 31.001 33.2461C30.3452 33.2461 29.8135 33.7778 29.8135 34.4336H32.1885ZM29.8135 46.3545C29.8135 47.0103 30.3452 47.542 31.001 47.542C31.657 47.542 32.1885 47.0103 32.1885 46.3545H29.8135ZM29.8135 34.4336C29.8135 35.0894 30.3452 35.6211 31.001 35.6211C31.657 35.6211 32.1885 35.0894 32.1885 34.4336H29.8135ZM32.1885 31.2891C32.1885 30.6333 31.657 30.1016 31.001 30.1016C30.3452 30.1016 29.8135 30.6333 29.8135 31.2891H32.1885ZM32.1885 26.5629C32.1885 25.907 31.657 25.3754 31.001 25.3754C30.3452 25.3754 29.8135 25.907 29.8135 26.5629H32.1885ZM29.8135 28.1462C29.8135 28.802 30.3452 29.3337 31.001 29.3337C31.657 29.3337 32.1885 28.802 32.1885 28.1462H29.8135ZM31.7135 29.0962C32.2382 28.7027 32.3446 27.9584 31.951 27.4337C31.5575 26.909 30.8132 26.8027 30.2885 27.1962L31.7135 29.0962ZM27.1219 29.5712C26.5972 29.9646 26.4909 30.709 26.8844 31.2337C27.2779 31.7584 28.0223 31.8646 28.5468 31.4712L27.1219 29.5712ZM32.1885 28.1462C32.1885 27.4904 31.657 26.9587 31.001 26.9587C30.3452 26.9587 29.8135 27.4904 29.8135 28.1462H32.1885ZM29.8135 31.2891C29.8135 31.9449 30.3452 32.4766 31.001 32.4766C31.657 32.4766 32.1885 31.9449 32.1885 31.2891H29.8135ZM31.4478 30.1888C30.8401 29.9422 30.1474 30.2348 29.9007 30.8424C29.654 31.4501 29.9466 32.1427 30.5543 32.3894L31.4478 30.1888ZM34.5127 33.9964C35.1203 34.2431 35.8129 33.9505 36.0596 33.3428C36.3064 32.7352 36.0138 32.0426 35.4061 31.7959L34.5127 33.9964ZM30.0586 33.7111C29.11 34.9483 27.6381 35.6718 26.0789 35.667L26.0716 38.042C28.372 38.0491 30.5437 36.9817 31.9434 35.1561L30.0586 33.7111ZM26.054 35.6672C23.4447 35.714 21.2638 33.6929 21.1124 31.0877L18.7414 31.2255C18.9667 35.1032 22.213 38.1115 26.0966 38.0419L26.054 35.6672ZM21.1124 31.0877C20.961 28.4824 22.8931 26.2222 25.4902 25.9666L25.2575 23.603C21.3919 23.9835 18.516 27.3477 18.7414 31.2255L21.1124 31.0877ZM26.4554 24.2945C26.1751 23.6759 26.0303 23.0045 26.031 22.3253L23.656 22.3232C23.655 23.3413 23.872 24.3477 24.2923 25.275L26.4554 24.2945ZM26.031 22.3253C26.031 19.5804 28.2561 17.3542 31.001 17.3542V14.9792C26.9445 14.9792 23.656 18.2666 23.656 22.3232L26.031 22.3253ZM31.001 17.3542C33.746 17.3542 35.9711 19.5794 35.9711 22.3243H38.3461C38.3461 18.2677 35.0576 14.9792 31.001 14.9792V17.3542ZM35.9711 22.3243C35.9717 23.0034 35.827 23.6759 35.5466 24.2945L37.7097 25.275C38.1301 24.3477 38.347 23.3423 38.3461 22.3243H35.9711ZM36.5119 25.9666C39.1089 26.2222 41.0411 28.4824 40.8897 31.0877L43.2607 31.2255C43.486 27.3477 40.6101 23.9835 36.7445 23.603L36.5119 25.9666ZM40.8897 31.0877C40.7383 33.6929 38.5573 35.714 35.9481 35.6672L35.9055 38.0419C39.7891 38.1115 43.0353 35.1032 43.2607 31.2255L40.8897 31.0877ZM35.9231 35.667C34.364 35.6718 32.8921 34.9483 31.9434 33.7111L30.0586 35.1561C31.4582 36.9817 33.6301 38.0491 35.9304 38.042L35.9231 35.667ZM29.8135 34.4336V46.3545H32.1885V34.4336H29.8135ZM32.1885 34.4336V31.2891H29.8135V34.4336H32.1885ZM29.8135 26.5629V28.1462H32.1885V26.5629H29.8135ZM30.2885 27.1962L27.1219 29.5712L28.5468 31.4712L31.7135 29.0962L30.2885 27.1962ZM29.8135 28.1462V31.2891H32.1885V28.1462H29.8135ZM30.5543 32.3894L34.5127 33.9964L35.4061 31.7959L31.4478 30.1888L30.5543 32.3894Z" fill="#266B48"/>
</svg>
