<svg width="652" height="512" viewBox="0 0 652 512" fill="none" xmlns="http://www.w3.org/2000/svg">
<path d="M25.6702 318.066C25.5593 319.047 25.1957 319.951 24.6402 320.652C24.7354 320.888 24.8107 321.137 24.8647 321.393C24.9677 321.883 24.9911 322.393 24.9334 322.894C24.8758 323.395 24.7382 323.877 24.5286 324.312C24.319 324.748 24.0414 325.129 23.7118 325.433C23.3821 325.737 23.0068 325.959 22.6073 326.085C22.2078 326.211 21.7919 326.24 21.3834 326.169C20.9748 326.099 20.5816 325.93 20.2263 325.673C19.8709 325.416 19.5603 325.076 19.3122 324.672C18.93 324.022 18.6794 323.271 18.5811 322.491C18.5078 321.959 18.3313 321.456 18.0664 321.025C17.8015 320.595 17.456 320.248 17.0591 320.015C16.4616 319.679 15.9376 319.174 15.5302 318.542C15.0276 317.727 14.8095 316.701 14.924 315.689C15.0385 314.677 15.4761 313.763 16.1407 313.146C16.8053 312.53 17.6423 312.263 18.4676 312.403C19.0973 312.51 19.6809 312.848 20.1454 313.364C20.8466 312.9 21.6548 312.717 22.4538 312.853C23.4443 313.022 24.3395 313.666 24.9427 314.643C25.5459 315.621 25.8076 316.852 25.6702 318.066Z" fill="#266B48"/>
<path d="M22.4399 309.909C22.2729 310.258 22.0514 310.563 21.7882 310.807C21.2565 311.3 20.5869 311.514 19.9266 311.402C19.2664 311.29 18.6695 310.86 18.2674 310.209C17.8653 309.557 17.6908 308.736 17.7824 307.926C17.874 307.117 18.2241 306.385 18.7558 305.892C19.019 305.648 19.3189 305.47 19.6383 305.368C19.9577 305.266 20.2904 305.242 20.6173 305.298C20.9442 305.353 21.259 305.487 21.5437 305.692C21.8284 305.897 22.0775 306.168 22.2766 306.491C22.4757 306.814 22.621 307.181 22.7042 307.573C22.7874 307.965 22.8069 308.372 22.7616 308.773C22.7162 309.174 22.6069 309.56 22.4399 309.909Z" fill="#266B48"/>
<path d="M28.7234 309.878C28.5564 310.227 28.335 310.532 28.0717 310.776C27.5401 311.269 26.8704 311.483 26.2102 311.371C25.5499 311.258 24.953 310.829 24.5509 310.177C24.1488 309.526 23.9743 308.705 24.0659 307.895C24.1575 307.086 24.5076 306.354 25.0393 305.861C25.3025 305.617 25.6024 305.439 25.9218 305.337C26.2412 305.235 26.5739 305.211 26.9008 305.266C27.2278 305.322 27.5426 305.456 27.8273 305.661C28.112 305.865 28.361 306.137 28.5601 306.46C28.7592 306.782 28.9045 307.15 28.9877 307.542C29.0709 307.933 29.0904 308.341 29.0451 308.742C28.9997 309.143 28.8904 309.529 28.7234 309.878Z" fill="#266B48"/>
<path d="M32.8356 314.886C32.7441 315.695 32.3939 316.427 31.8623 316.92C31.3306 317.413 30.661 317.627 30.0007 317.514C29.3404 317.402 28.7436 316.973 28.3415 316.321C27.9393 315.669 27.7649 314.848 27.8565 314.039C27.948 313.229 28.2982 312.498 28.8298 312.005C29.3615 311.512 30.0311 311.298 30.6914 311.41C31.3517 311.522 31.9485 311.952 32.3506 312.603C32.7528 313.255 32.9272 314.076 32.8356 314.886Z" fill="#266B48"/>
<path d="M31.4799 322.904C31.3883 323.713 31.0381 324.445 30.5065 324.938C29.9748 325.431 29.3052 325.645 28.6449 325.533C27.9846 325.42 27.3878 324.991 26.9857 324.339C26.5835 323.687 26.4091 322.867 26.5007 322.057C26.5923 321.248 26.9424 320.516 27.474 320.023C28.0057 319.53 28.6753 319.316 29.3356 319.428C29.9959 319.541 30.5927 319.97 30.9948 320.622C31.397 321.273 31.5714 322.094 31.4799 322.904Z" fill="#266B48"/>
<path d="M57.8626 324.274C57.7517 325.254 57.3881 326.158 56.8326 326.859C56.9277 327.096 57.0031 327.344 57.0571 327.601C57.1601 328.09 57.1835 328.6 57.1258 329.101C57.0682 329.602 56.9306 330.084 56.721 330.52C56.5114 330.955 56.2338 331.336 55.9041 331.64C55.5745 331.944 55.1992 332.166 54.7997 332.292C54.4002 332.419 53.9843 332.447 53.5757 332.377C53.1672 332.306 52.774 332.137 52.4187 331.88C52.0633 331.623 51.7527 331.283 51.5046 330.879C51.1224 330.229 50.8717 329.479 50.7735 328.698C50.7002 328.166 50.5236 327.663 50.2588 327.233C49.9939 326.802 49.6484 326.455 49.2515 326.223C48.654 325.887 48.13 325.382 47.7226 324.749C47.22 323.934 47.0019 322.908 47.1164 321.896C47.2309 320.885 47.6685 319.97 48.3331 319.354C48.9976 318.737 49.8347 318.47 50.66 318.61C51.2897 318.718 51.8733 319.055 52.3378 319.571C53.039 319.107 53.8472 318.925 54.6462 319.061C55.6366 319.229 56.5319 319.873 57.1351 320.85C57.7383 321.828 58 323.059 57.8626 324.274Z" fill="#266B48"/>
<path d="M54.6323 316.116C54.4653 316.465 54.2438 316.77 53.9806 317.015C53.4489 317.508 52.7793 317.721 52.119 317.609C51.4587 317.497 50.8619 317.068 50.4598 316.416C50.0576 315.764 49.8832 314.943 49.9748 314.134C50.0664 313.324 50.4165 312.593 50.9481 312.1C51.2114 311.855 51.5113 311.677 51.8307 311.575C52.1501 311.473 52.4828 311.449 52.8097 311.505C53.1366 311.561 53.4514 311.695 53.7361 311.899C54.0208 312.104 54.2698 312.376 54.469 312.698C54.6681 313.021 54.8134 313.389 54.8966 313.78C54.9798 314.172 54.9993 314.58 54.954 314.98C54.9086 315.381 54.7993 315.767 54.6323 316.116Z" fill="#266B48"/>
<path d="M60.9158 316.085C60.7488 316.434 60.5273 316.739 60.2641 316.983C59.7324 317.476 59.0628 317.69 58.4025 317.578C57.7423 317.465 57.1454 317.036 56.7433 316.384C56.3412 315.733 56.1667 314.912 56.2583 314.102C56.3499 313.293 56.7 312.561 57.2317 312.068C57.4949 311.824 57.7948 311.646 58.1142 311.544C58.4336 311.442 58.7663 311.418 59.0932 311.474C59.4201 311.529 59.735 311.663 60.0196 311.868C60.3043 312.073 60.5534 312.344 60.7525 312.667C60.9516 312.99 61.0969 313.357 61.1801 313.749C61.2633 314.14 61.2828 314.548 61.2375 314.949C61.1921 315.35 61.0828 315.736 60.9158 316.085Z" fill="#266B48"/>
<path d="M65.028 321.093C64.9364 321.902 64.5863 322.634 64.0547 323.127C63.523 323.62 62.8534 323.834 62.1931 323.722C61.5328 323.609 60.936 323.18 60.5338 322.528C60.1317 321.876 59.9573 321.056 60.0488 320.246C60.1404 319.437 60.4906 318.705 61.0222 318.212C61.5539 317.719 62.2235 317.505 62.8838 317.617C63.544 317.73 64.1409 318.159 64.543 318.811C64.9452 319.462 65.1196 320.283 65.028 321.093Z" fill="#266B48"/>
<path d="M63.6722 329.111C63.5806 329.92 63.2305 330.652 62.6989 331.145C62.1672 331.638 61.4976 331.852 60.8373 331.74C60.177 331.627 59.5802 331.198 59.178 330.546C58.7759 329.895 58.6015 329.074 58.693 328.264C58.7846 327.455 59.1348 326.723 59.6664 326.23C60.1981 325.737 60.8677 325.523 61.528 325.636C62.1882 325.748 62.7851 326.177 63.1872 326.829C63.5894 327.481 63.7638 328.302 63.6722 329.111Z" fill="#266B48"/>
<path d="M69.175 275.019C68.9534 275.97 68.4902 276.803 67.8601 277.402C67.9274 277.653 67.9736 277.912 67.9978 278.175C68.044 278.678 68.009 279.187 67.8947 279.673C67.7805 280.159 67.5893 280.612 67.332 281.008C67.0748 281.403 66.7565 281.733 66.3954 281.977C66.0343 282.222 65.6374 282.377 65.2274 282.434C64.8174 282.49 64.4023 282.447 64.0059 282.307C63.6094 282.167 63.2393 281.933 62.9168 281.617C62.5942 281.302 62.3255 280.912 62.1259 280.469C61.8216 279.76 61.659 278.974 61.6508 278.184C61.6389 277.645 61.5214 277.117 61.3083 276.645C61.0952 276.173 60.7926 275.771 60.4262 275.472C59.8728 275.037 59.4116 274.447 59.0804 273.751C58.6756 272.858 58.5768 271.805 58.8055 270.823C59.0343 269.84 59.572 269.01 60.3004 268.513C61.0287 268.017 61.888 267.896 62.6892 268.177C63.3005 268.391 63.8398 268.825 64.2409 269.415C64.9882 269.076 65.8092 269.034 66.5849 269.306C67.5464 269.642 68.3594 270.433 68.8452 271.505C69.3309 272.576 69.4495 273.84 69.175 275.019Z" fill="#266B48"/>
<path d="M66.907 266.388C66.7018 266.705 66.4477 266.969 66.1592 267.166C65.5766 267.563 64.8891 267.66 64.2481 267.435C63.6071 267.211 63.0651 266.683 62.7413 265.969C62.4175 265.255 62.3384 264.412 62.5214 263.626C62.7044 262.84 63.1346 262.176 63.7173 261.779C64.0058 261.582 64.323 261.457 64.651 261.411C64.9789 261.365 65.311 261.398 65.6284 261.509C65.9457 261.621 66.2422 261.807 66.5007 262.059C66.7593 262.31 66.9749 262.622 67.1352 262.975C67.2955 263.329 67.3975 263.718 67.4352 264.12C67.4729 264.522 67.4457 264.929 67.3551 265.318C67.2645 265.707 67.1122 266.071 66.907 266.388Z" fill="#266B48"/>
<path d="M73.1324 267.434C72.9272 267.751 72.6731 268.015 72.3846 268.212C71.8019 268.609 71.1145 268.706 70.4735 268.481C69.8325 268.257 69.2905 267.73 68.9666 267.015C68.6428 266.301 68.5637 265.458 68.7468 264.673C68.9298 263.887 69.36 263.222 69.9426 262.825C70.2311 262.629 70.5484 262.504 70.8763 262.457C71.2042 262.411 71.5363 262.445 71.8537 262.556C72.1711 262.667 72.4675 262.853 72.7261 263.105C72.9846 263.357 73.2002 263.668 73.3605 264.022C73.5209 264.375 73.6228 264.764 73.6605 265.166C73.6983 265.568 73.671 265.976 73.5804 266.365C73.4898 266.754 73.3375 267.117 73.1324 267.434Z" fill="#266B48"/>
<path d="M76.6328 273.098C76.4498 273.884 76.0197 274.548 75.437 274.945C74.8543 275.342 74.1669 275.439 73.5259 275.215C72.8849 274.99 72.3429 274.463 72.0191 273.749C71.6953 273.034 71.6162 272.192 71.7992 271.406C71.9822 270.62 72.4124 269.956 72.995 269.559C73.5777 269.162 74.2651 269.065 74.9061 269.289C75.5471 269.513 76.0891 270.041 76.413 270.755C76.7368 271.469 76.8159 272.312 76.6328 273.098Z" fill="#266B48"/>
<path d="M74.3757 280.805C74.1926 281.591 73.7625 282.255 73.1798 282.652C72.5971 283.049 71.9097 283.146 71.2687 282.922C70.6277 282.697 70.0857 282.17 69.7619 281.456C69.4381 280.741 69.359 279.899 69.542 279.113C69.725 278.327 70.1552 277.662 70.7379 277.265C71.3205 276.869 72.008 276.772 72.6489 276.996C73.2899 277.22 73.8319 277.748 74.1558 278.462C74.4796 279.176 74.5587 280.019 74.3757 280.805Z" fill="#266B48"/>
<path d="M100.343 286.685C100.122 287.637 99.6587 288.469 99.0286 289.068C99.0958 289.319 99.1421 289.578 99.1663 289.841C99.2124 290.344 99.1774 290.853 99.0632 291.339C98.9489 291.825 98.7577 292.278 98.5005 292.674C98.2432 293.069 97.9249 293.399 97.5638 293.643C97.2027 293.888 96.8058 294.043 96.3958 294.1C95.9858 294.156 95.5708 294.113 95.1743 293.973C94.7779 293.833 94.4078 293.599 94.0852 293.284C93.7627 292.968 93.4939 292.578 93.2944 292.135C92.9901 291.426 92.8275 290.64 92.8193 289.85C92.8073 289.311 92.6899 288.783 92.4768 288.311C92.2636 287.839 91.9611 287.437 91.5946 287.138C91.0413 286.703 90.5801 286.113 90.2489 285.417C89.8441 284.524 89.7452 283.471 89.974 282.489C90.2028 281.506 90.7405 280.676 91.4688 280.18C92.1972 279.683 93.0565 279.562 93.8577 279.843C94.469 280.057 95.0083 280.491 95.4093 281.082C96.1566 280.742 96.9777 280.7 97.7534 280.972C98.7148 281.308 99.5279 282.099 100.014 283.171C100.499 284.242 100.618 285.506 100.343 286.685Z" fill="#266B48"/>
<path d="M98.0755 278.054C97.8703 278.371 97.6162 278.635 97.3277 278.832C96.745 279.229 96.0576 279.326 95.4166 279.101C94.7756 278.877 94.2336 278.35 93.9098 277.635C93.5859 276.921 93.5068 276.078 93.6899 275.292C93.8729 274.507 94.3031 273.842 94.8857 273.445C95.1742 273.249 95.4915 273.124 95.8194 273.077C96.1473 273.031 96.4794 273.064 96.7968 273.176C97.1142 273.287 97.4106 273.473 97.6692 273.725C97.9277 273.976 98.1433 274.288 98.3036 274.642C98.464 274.995 98.5659 275.384 98.6037 275.786C98.6414 276.188 98.6142 276.595 98.5235 276.984C98.4329 277.374 98.2807 277.737 98.0755 278.054Z" fill="#266B48"/>
<path d="M104.301 279.1C104.096 279.417 103.842 279.681 103.553 279.878C102.97 280.275 102.283 280.372 101.642 280.148C101.001 279.923 100.459 279.396 100.135 278.682C99.8113 277.967 99.7322 277.124 99.9152 276.339C100.098 275.553 100.528 274.888 101.111 274.491C101.4 274.295 101.717 274.17 102.045 274.124C102.373 274.077 102.705 274.111 103.022 274.222C103.34 274.333 103.636 274.52 103.895 274.771C104.153 275.023 104.369 275.334 104.529 275.688C104.689 276.042 104.791 276.431 104.829 276.833C104.867 277.235 104.84 277.642 104.749 278.031C104.658 278.42 104.506 278.783 104.301 279.1Z" fill="#266B48"/>
<path d="M107.801 284.764C107.618 285.55 107.188 286.214 106.605 286.611C106.023 287.008 105.335 287.105 104.694 286.881C104.053 286.656 103.511 286.129 103.188 285.415C102.864 284.701 102.785 283.858 102.968 283.072C103.151 282.286 103.581 281.622 104.164 281.225C104.746 280.828 105.434 280.731 106.075 280.955C106.716 281.18 107.258 281.707 107.581 282.421C107.905 283.135 107.984 283.978 107.801 284.764Z" fill="#266B48"/>
<path d="M105.544 292.471C105.361 293.257 104.931 293.921 104.348 294.318C103.766 294.715 103.078 294.812 102.437 294.588C101.796 294.363 101.254 293.836 100.93 293.122C100.607 292.407 100.527 291.565 100.71 290.779C100.893 289.993 101.324 289.329 101.906 288.932C102.489 288.535 103.176 288.438 103.817 288.662C104.458 288.886 105 289.414 105.324 290.128C105.648 290.842 105.727 291.685 105.544 292.471Z" fill="#266B48"/>
<path d="M116.958 250.912C116.607 251.803 116.034 252.526 115.33 252.984C115.361 253.245 115.37 253.51 115.357 253.774C115.333 254.279 115.227 254.773 115.047 255.228C114.866 255.683 114.614 256.09 114.306 256.425C113.997 256.761 113.637 257.019 113.248 257.184C112.858 257.349 112.445 257.419 112.033 257.388C111.621 257.358 111.218 257.229 110.847 257.007C110.476 256.786 110.144 256.478 109.871 256.099C109.597 255.721 109.387 255.28 109.252 254.802C109.051 254.039 109.001 253.231 109.103 252.451C109.166 251.917 109.124 251.372 108.98 250.863C108.836 250.353 108.594 249.893 108.275 249.522C107.791 248.977 107.418 248.299 107.189 247.544C106.915 246.579 106.965 245.521 107.328 244.601C107.69 243.681 108.336 242.976 109.123 242.64C109.91 242.304 110.773 242.364 111.523 242.809C112.096 243.148 112.566 243.689 112.879 244.355C113.663 244.178 114.478 244.309 115.204 244.739C116.104 245.272 116.795 246.222 117.124 247.38C117.453 248.538 117.393 249.808 116.958 250.912Z" fill="#266B48"/>
<path d="M115.929 241.932C115.682 242.201 115.395 242.408 115.083 242.541C114.454 242.81 113.763 242.761 113.163 242.406C112.563 242.05 112.102 241.417 111.883 240.645C111.664 239.873 111.703 239.026 111.994 238.291C112.284 237.555 112.8 236.991 113.43 236.722C113.741 236.589 114.071 236.532 114.401 236.555C114.73 236.579 115.053 236.681 115.35 236.857C115.647 237.033 115.913 237.279 116.133 237.581C116.353 237.884 116.521 238.236 116.63 238.618C116.739 239 116.785 239.405 116.766 239.809C116.747 240.213 116.663 240.608 116.519 240.972C116.376 241.337 116.175 241.663 115.929 241.932Z" fill="#266B48"/>
<path d="M121.916 244.269C121.67 244.539 121.382 244.746 121.071 244.879C120.441 245.148 119.75 245.099 119.15 244.743C118.55 244.388 118.09 243.754 117.87 242.983C117.651 242.211 117.691 241.364 117.981 240.628C118.271 239.892 118.787 239.328 119.417 239.059C119.729 238.926 120.059 238.869 120.388 238.893C120.718 238.916 121.04 239.019 121.338 239.195C121.635 239.371 121.901 239.617 122.12 239.919C122.34 240.221 122.509 240.573 122.617 240.955C122.726 241.337 122.772 241.742 122.753 242.146C122.734 242.55 122.65 242.945 122.507 243.31C122.363 243.674 122.162 244 121.916 244.269Z" fill="#266B48"/>
<path d="M124.574 250.584C124.284 251.32 123.767 251.884 123.138 252.153C122.508 252.422 121.817 252.373 121.217 252.018C120.617 251.662 120.157 251.029 119.937 250.257C119.718 249.485 119.758 248.638 120.048 247.903C120.338 247.167 120.855 246.602 121.484 246.334C122.114 246.065 122.804 246.114 123.405 246.469C124.005 246.825 124.465 247.458 124.684 248.23C124.904 249.001 124.864 249.848 124.574 250.584Z" fill="#266B48"/>
<path d="M121.274 257.704C120.984 258.439 120.467 259.004 119.838 259.273C119.208 259.541 118.517 259.493 117.917 259.137C117.317 258.781 116.856 258.148 116.637 257.376C116.418 256.605 116.458 255.758 116.748 255.022C117.038 254.286 117.554 253.722 118.184 253.453C118.813 253.184 119.504 253.233 120.104 253.589C120.705 253.944 121.165 254.577 121.384 255.349C121.604 256.121 121.564 256.968 121.274 257.704Z" fill="#266B48"/>
<path d="M146.036 268.947C145.685 269.838 145.113 270.561 144.408 271.019C144.439 271.28 144.449 271.545 144.436 271.81C144.411 272.315 144.306 272.809 144.125 273.263C143.945 273.718 143.693 274.125 143.384 274.461C143.076 274.796 142.716 275.054 142.326 275.219C141.936 275.385 141.524 275.454 141.112 275.424C140.7 275.394 140.297 275.264 139.926 275.043C139.555 274.822 139.223 274.513 138.949 274.135C138.675 273.756 138.465 273.315 138.33 272.837C138.13 272.075 138.079 271.266 138.181 270.486C138.245 269.953 138.203 269.408 138.059 268.898C137.915 268.389 137.673 267.929 137.354 267.558C136.869 267.013 136.497 266.335 136.268 265.579C135.994 264.615 136.044 263.556 136.406 262.636C136.769 261.717 137.414 261.011 138.201 260.675C138.988 260.339 139.852 260.4 140.602 260.845C141.174 261.184 141.645 261.725 141.958 262.391C142.741 262.213 143.556 262.344 144.282 262.775C145.183 263.308 145.873 264.258 146.202 265.416C146.531 266.573 146.472 267.843 146.036 268.947Z" fill="#266B48"/>
<path d="M145.007 259.967C144.761 260.237 144.474 260.444 144.162 260.577C143.532 260.846 142.842 260.797 142.241 260.441C141.641 260.086 141.181 259.452 140.962 258.681C140.742 257.909 140.782 257.062 141.072 256.326C141.362 255.59 141.879 255.026 142.508 254.757C142.82 254.624 143.15 254.568 143.48 254.591C143.809 254.614 144.132 254.717 144.429 254.893C144.726 255.069 144.992 255.315 145.212 255.617C145.431 255.919 145.6 256.271 145.709 256.653C145.817 257.035 145.863 257.44 145.844 257.844C145.825 258.248 145.742 258.643 145.598 259.008C145.454 259.372 145.254 259.698 145.007 259.967Z" fill="#266B48"/>
<path d="M150.995 262.305C150.748 262.574 150.461 262.781 150.149 262.914C149.52 263.183 148.829 263.134 148.229 262.779C147.629 262.423 147.168 261.79 146.949 261.018C146.73 260.246 146.769 259.399 147.059 258.664C147.349 257.928 147.866 257.363 148.496 257.095C148.807 256.962 149.137 256.905 149.467 256.928C149.796 256.951 150.119 257.054 150.416 257.23C150.713 257.406 150.979 257.652 151.199 257.954C151.418 258.257 151.587 258.609 151.696 258.991C151.805 259.373 151.851 259.778 151.832 260.181C151.813 260.585 151.729 260.981 151.585 261.345C151.442 261.71 151.241 262.036 150.995 262.305Z" fill="#266B48"/>
<path d="M153.652 268.62C153.362 269.356 152.846 269.92 152.216 270.189C151.587 270.458 150.896 270.409 150.296 270.053C149.696 269.698 149.235 269.064 149.016 268.293C148.797 267.521 148.836 266.674 149.126 265.938C149.417 265.202 149.933 264.638 150.563 264.369C151.192 264.1 151.883 264.149 152.483 264.505C153.083 264.86 153.544 265.494 153.763 266.265C153.982 267.037 153.943 267.884 153.652 268.62Z" fill="#266B48"/>
<path d="M150.352 275.739C150.062 276.475 149.546 277.039 148.916 277.308C148.287 277.577 147.596 277.528 146.996 277.173C146.395 276.817 145.935 276.184 145.716 275.412C145.497 274.64 145.536 273.793 145.826 273.058C146.116 272.322 146.633 271.757 147.263 271.489C147.892 271.22 148.583 271.268 149.183 271.624C149.783 271.98 150.244 272.613 150.463 273.385C150.682 274.156 150.642 275.003 150.352 275.739Z" fill="#266B48"/>
<path d="M173.043 228.381C172.697 229.274 172.129 230.003 171.427 230.467C171.46 230.728 171.471 230.992 171.46 231.257C171.438 231.762 171.335 232.257 171.157 232.713C170.98 233.17 170.73 233.579 170.424 233.917C170.117 234.256 169.759 234.516 169.37 234.685C168.981 234.854 168.569 234.927 168.157 234.9C167.745 234.874 167.341 234.748 166.969 234.53C166.596 234.312 166.263 234.006 165.987 233.63C165.711 233.254 165.498 232.815 165.36 232.338C165.155 231.577 165.1 230.77 165.197 229.989C165.258 229.454 165.213 228.91 165.066 228.402C164.919 227.893 164.674 227.435 164.353 227.067C163.865 226.527 163.489 225.852 163.256 225.099C162.976 224.136 163.019 223.077 163.376 222.154C163.734 221.232 164.375 220.52 165.16 220.177C165.945 219.835 166.809 219.888 167.562 220.326C168.136 220.66 168.61 221.197 168.927 221.86C169.709 221.676 170.525 221.8 171.253 222.223C172.157 222.749 172.853 223.693 173.189 224.848C173.524 226.002 173.472 227.273 173.043 228.381Z" fill="#266B48"/>
<path d="M171.962 219.41C171.717 219.681 171.431 219.891 171.12 220.027C170.492 220.301 169.801 220.258 169.199 219.908C168.597 219.558 168.133 218.929 167.909 218.159C167.685 217.389 167.72 216.542 168.006 215.803C168.291 215.065 168.805 214.496 169.432 214.222C169.743 214.086 170.073 214.027 170.403 214.047C170.732 214.067 171.056 214.167 171.354 214.341C171.652 214.514 171.919 214.758 172.141 215.058C172.362 215.358 172.533 215.709 172.644 216.09C172.755 216.471 172.803 216.875 172.787 217.279C172.77 217.684 172.689 218.08 172.547 218.445C172.406 218.811 172.207 219.139 171.962 219.41Z" fill="#266B48"/>
<path d="M177.963 221.695C177.718 221.966 177.432 222.176 177.121 222.312C176.493 222.586 175.802 222.543 175.2 222.193C174.597 221.843 174.133 221.213 173.91 220.444C173.686 219.674 173.721 218.827 174.006 218.088C174.292 217.35 174.805 216.781 175.433 216.507C175.744 216.371 176.074 216.311 176.404 216.332C176.733 216.352 177.056 216.452 177.355 216.625C177.653 216.799 177.92 217.043 178.142 217.343C178.363 217.643 178.534 217.994 178.645 218.375C178.755 218.756 178.804 219.16 178.787 219.564C178.771 219.968 178.689 220.364 178.548 220.73C178.406 221.096 178.208 221.423 177.963 221.695Z" fill="#266B48"/>
<path d="M180.657 227.986C180.372 228.725 179.858 229.293 179.23 229.568C178.602 229.842 177.911 229.799 177.309 229.449C176.707 229.099 176.243 228.47 176.019 227.7C175.795 226.93 175.83 226.083 176.116 225.344C176.402 224.606 176.915 224.037 177.543 223.763C178.171 223.489 178.862 223.531 179.464 223.882C180.066 224.232 180.53 224.861 180.754 225.631C180.978 226.401 180.943 227.248 180.657 227.986Z" fill="#266B48"/>
<path d="M177.399 235.134C177.113 235.873 176.6 236.442 175.972 236.716C175.344 236.99 174.653 236.948 174.051 236.597C173.448 236.247 172.984 235.618 172.761 234.848C172.537 234.078 172.572 233.231 172.857 232.493C173.143 231.754 173.656 231.185 174.284 230.911C174.912 230.637 175.603 230.679 176.206 231.03C176.808 231.38 177.272 232.009 177.496 232.779C177.719 233.549 177.685 234.396 177.399 235.134Z" fill="#266B48"/>
<path d="M202.227 246.16C201.881 247.054 201.312 247.783 200.61 248.247C200.643 248.507 200.654 248.772 200.643 249.037C200.621 249.542 200.518 250.037 200.341 250.493C200.163 250.95 199.913 251.359 199.607 251.697C199.3 252.035 198.942 252.296 198.553 252.465C198.164 252.634 197.752 252.707 197.34 252.68C196.928 252.653 196.524 252.528 196.152 252.31C195.779 252.092 195.446 251.786 195.17 251.41C194.894 251.034 194.681 250.595 194.543 250.118C194.338 249.357 194.283 248.549 194.381 247.769C194.441 247.234 194.396 246.69 194.249 246.181C194.102 245.673 193.857 245.215 193.536 244.847C193.048 244.306 192.672 243.632 192.439 242.878C192.159 241.916 192.202 240.857 192.56 239.934C192.917 239.011 193.558 238.3 194.343 237.957C195.128 237.614 195.992 237.668 196.745 238.106C197.319 238.44 197.793 238.977 198.11 239.64C198.892 239.456 199.708 239.579 200.437 240.003C201.34 240.529 202.036 241.473 202.372 242.627C202.707 243.782 202.655 245.053 202.227 246.16Z" fill="#266B48"/>
<path d="M201.145 237.19C200.9 237.461 200.614 237.671 200.303 237.807C199.675 238.081 198.984 238.038 198.382 237.688C197.78 237.338 197.316 236.708 197.092 235.939C196.868 235.169 196.903 234.322 197.189 233.583C197.474 232.845 197.988 232.276 198.616 232.002C198.926 231.866 199.256 231.806 199.586 231.827C199.915 231.847 200.239 231.947 200.537 232.12C200.835 232.294 201.102 232.538 201.324 232.838C201.545 233.138 201.716 233.489 201.827 233.87C201.938 234.251 201.986 234.655 201.97 235.059C201.953 235.463 201.872 235.86 201.73 236.225C201.589 236.591 201.39 236.918 201.145 237.19Z" fill="#266B48"/>
<path d="M207.146 239.475C206.901 239.746 206.615 239.956 206.304 240.091C205.676 240.366 204.985 240.323 204.383 239.973C203.78 239.623 203.316 238.993 203.093 238.223C202.869 237.454 202.904 236.606 203.189 235.868C203.475 235.13 203.988 234.561 204.616 234.287C204.927 234.151 205.257 234.091 205.587 234.112C205.916 234.132 206.239 234.232 206.538 234.405C206.836 234.579 207.103 234.822 207.325 235.123C207.546 235.423 207.717 235.773 207.828 236.155C207.939 236.536 207.987 236.94 207.97 237.344C207.954 237.748 207.872 238.144 207.731 238.51C207.589 238.875 207.391 239.203 207.146 239.475Z" fill="#266B48"/>
<path d="M209.84 245.766C209.555 246.504 209.041 247.073 208.413 247.348C207.786 247.622 207.094 247.579 206.492 247.229C205.89 246.879 205.426 246.249 205.202 245.48C204.978 244.71 205.013 243.863 205.299 243.124C205.585 242.386 206.098 241.817 206.726 241.543C207.354 241.268 208.045 241.311 208.647 241.661C209.249 242.012 209.713 242.641 209.937 243.411C210.161 244.181 210.126 245.028 209.84 245.766Z" fill="#266B48"/>
<path d="M206.582 252.914C206.296 253.653 205.783 254.221 205.155 254.496C204.527 254.77 203.836 254.728 203.234 254.377C202.631 254.027 202.167 253.398 201.944 252.628C201.72 251.858 201.755 251.011 202.04 250.272C202.326 249.534 202.839 248.965 203.467 248.691C204.095 248.417 204.786 248.459 205.389 248.81C205.991 249.16 206.455 249.789 206.679 250.559C206.903 251.329 206.868 252.176 206.582 252.914Z" fill="#266B48"/>
<path d="M222.534 212.876C222.056 213.674 221.386 214.257 220.625 214.551C220.618 214.814 220.587 215.077 220.536 215.334C220.436 215.825 220.259 216.287 220.015 216.694C219.77 217.101 219.462 217.445 219.109 217.707C218.755 217.968 218.363 218.141 217.955 218.217C217.548 218.293 217.131 218.269 216.731 218.147C216.33 218.026 215.953 217.809 215.621 217.509C215.289 217.208 215.009 216.831 214.796 216.398C214.582 215.965 214.441 215.484 214.379 214.984C214.295 214.19 214.365 213.384 214.581 212.639C214.723 212.129 214.762 211.584 214.696 211.05C214.63 210.517 214.46 210.011 214.201 209.575C213.806 208.931 213.54 208.182 213.427 207.388C213.301 206.378 213.506 205.348 213.999 204.525C214.492 203.701 215.232 203.151 216.055 202.996C216.879 202.841 217.719 203.093 218.391 203.697C218.903 204.158 219.286 204.795 219.495 205.52C220.292 205.52 221.074 205.83 221.724 206.415C222.53 207.14 223.068 208.228 223.22 209.44C223.372 210.651 223.125 211.887 222.534 212.876Z" fill="#266B48"/>
<path d="M222.853 203.816C222.571 204.026 222.257 204.166 221.931 204.227C221.272 204.351 220.6 204.149 220.063 203.666C219.525 203.183 219.166 202.457 219.065 201.65C218.964 200.842 219.129 200.018 219.523 199.359C219.917 198.7 220.509 198.26 221.168 198.136C221.494 198.075 221.827 198.092 222.148 198.189C222.468 198.285 222.77 198.458 223.036 198.697C223.302 198.936 223.527 199.238 223.699 199.584C223.87 199.93 223.984 200.314 224.034 200.714C224.084 201.114 224.069 201.522 223.991 201.915C223.912 202.308 223.771 202.678 223.576 203.004C223.381 203.33 223.135 203.606 222.853 203.816Z" fill="#266B48"/>
<path d="M228.394 207.449C228.112 207.658 227.799 207.798 227.472 207.859C226.814 207.984 226.141 207.782 225.604 207.298C225.066 206.815 224.708 206.09 224.606 205.282C224.505 204.474 224.67 203.65 225.064 202.991C225.458 202.332 226.05 201.893 226.709 201.768C227.035 201.707 227.368 201.725 227.689 201.821C228.009 201.917 228.311 202.09 228.577 202.33C228.844 202.569 229.069 202.87 229.24 203.216C229.411 203.562 229.525 203.946 229.575 204.346C229.625 204.746 229.61 205.154 229.532 205.547C229.453 205.94 229.312 206.31 229.117 206.637C228.922 206.963 228.676 207.239 228.394 207.449Z" fill="#266B48"/>
<path d="M230.072 214.25C229.677 214.909 229.086 215.349 228.427 215.473C227.768 215.597 227.096 215.396 226.558 214.912C226.021 214.429 225.662 213.704 225.561 212.896C225.459 212.088 225.624 211.264 226.018 210.605C226.413 209.946 227.004 209.506 227.663 209.382C228.322 209.258 228.994 209.46 229.532 209.943C230.069 210.427 230.428 211.152 230.529 211.96C230.63 212.768 230.466 213.592 230.072 214.25Z" fill="#266B48"/>
<path d="M225.771 220.516C225.377 221.175 224.785 221.615 224.126 221.739C223.467 221.863 222.795 221.661 222.258 221.178C221.72 220.694 221.361 219.969 221.26 219.161C221.159 218.354 221.324 217.53 221.718 216.871C222.112 216.212 222.704 215.772 223.363 215.648C224.022 215.524 224.694 215.726 225.231 216.209C225.769 216.692 226.127 217.418 226.229 218.225C226.33 219.033 226.165 219.857 225.771 220.516Z" fill="#266B48"/>
<path d="M248.455 237.089C247.977 237.887 247.307 238.471 246.546 238.764C246.538 239.028 246.508 239.29 246.456 239.547C246.357 240.038 246.18 240.501 245.935 240.908C245.691 241.315 245.383 241.659 245.029 241.92C244.676 242.181 244.284 242.355 243.876 242.43C243.468 242.506 243.052 242.482 242.652 242.361C242.251 242.239 241.874 242.022 241.542 241.722C241.21 241.422 240.93 241.044 240.716 240.611C240.503 240.178 240.362 239.698 240.3 239.198C240.216 238.403 240.286 237.597 240.502 236.853C240.644 236.342 240.683 235.797 240.617 235.264C240.551 234.73 240.381 234.224 240.122 233.788C239.727 233.145 239.461 232.395 239.348 231.601C239.222 230.592 239.427 229.562 239.92 228.738C240.413 227.914 241.153 227.364 241.976 227.209C242.8 227.054 243.64 227.306 244.312 227.911C244.824 228.372 245.207 229.009 245.416 229.733C246.213 229.733 246.994 230.044 247.645 230.629C248.451 231.354 248.989 232.442 249.141 233.653C249.293 234.865 249.046 236.101 248.455 237.089Z" fill="#266B48"/>
<path d="M248.774 228.03C248.492 228.239 248.178 228.379 247.852 228.441C247.193 228.565 246.521 228.363 245.984 227.879C245.446 227.396 245.087 226.671 244.986 225.863C244.885 225.055 245.05 224.231 245.444 223.572C245.838 222.913 246.43 222.474 247.089 222.349C247.415 222.288 247.748 222.306 248.068 222.402C248.389 222.498 248.691 222.671 248.957 222.911C249.223 223.15 249.448 223.451 249.62 223.797C249.791 224.143 249.905 224.527 249.955 224.927C250.005 225.327 249.99 225.735 249.912 226.128C249.833 226.521 249.692 226.891 249.497 227.218C249.302 227.544 249.056 227.82 248.774 228.03Z" fill="#266B48"/>
<path d="M254.315 231.662C254.033 231.872 253.72 232.011 253.393 232.073C252.734 232.197 252.062 231.995 251.525 231.512C250.987 231.028 250.629 230.303 250.527 229.495C250.426 228.688 250.591 227.864 250.985 227.205C251.379 226.546 251.971 226.106 252.63 225.982C252.956 225.92 253.289 225.938 253.61 226.035C253.93 226.131 254.232 226.304 254.498 226.543C254.764 226.782 254.989 227.084 255.161 227.43C255.332 227.776 255.446 228.159 255.496 228.559C255.546 228.959 255.531 229.367 255.453 229.76C255.374 230.154 255.233 230.524 255.038 230.85C254.843 231.176 254.597 231.452 254.315 231.662Z" fill="#266B48"/>
<path d="M255.992 238.464C255.598 239.123 255.006 239.563 254.348 239.687C253.689 239.811 253.017 239.609 252.479 239.126C251.942 238.642 251.583 237.917 251.482 237.109C251.38 236.301 251.545 235.478 251.939 234.819C252.334 234.16 252.925 233.72 253.584 233.596C254.243 233.472 254.915 233.673 255.453 234.157C255.99 234.64 256.349 235.366 256.45 236.173C256.551 236.981 256.387 237.805 255.992 238.464Z" fill="#266B48"/>
<path d="M251.692 244.73C251.298 245.388 250.706 245.828 250.047 245.952C249.388 246.077 248.716 245.875 248.179 245.391C247.641 244.908 247.282 244.183 247.181 243.375C247.08 242.567 247.244 241.743 247.639 241.084C248.033 240.425 248.625 239.985 249.284 239.861C249.942 239.737 250.615 239.939 251.152 240.422C251.69 240.906 252.048 241.631 252.15 242.439C252.251 243.247 252.086 244.071 251.692 244.73Z" fill="#266B48"/>
<path d="M277.738 200.336C277.124 200.979 276.362 201.359 275.567 201.431C275.51 201.685 275.432 201.932 275.333 202.168C275.145 202.618 274.886 203.018 274.572 203.346C274.257 203.673 273.893 203.922 273.501 204.077C273.108 204.232 272.694 204.29 272.283 204.249C271.872 204.208 271.471 204.069 271.104 203.838C270.737 203.607 270.41 203.29 270.143 202.904C269.876 202.519 269.673 202.073 269.547 201.591C269.42 201.11 269.372 200.603 269.406 200.098C269.472 199.301 269.691 198.536 270.041 197.873C270.274 197.415 270.414 196.896 270.45 196.358C270.485 195.82 270.414 195.28 270.244 194.783C269.979 194.045 269.861 193.241 269.899 192.436C269.964 191.418 270.357 190.473 270.991 189.81C271.625 189.147 272.447 188.819 273.278 188.9C274.109 188.98 274.879 189.462 275.42 190.238C275.833 190.831 276.086 191.559 276.154 192.323C276.93 192.547 277.633 193.068 278.157 193.82C278.806 194.752 279.127 195.963 279.048 197.185C278.969 198.407 278.498 199.54 277.738 200.336Z" fill="#266B48"/>
<path d="M279.741 191.607C279.427 191.732 279.097 191.78 278.767 191.749C278.103 191.684 277.486 191.299 277.054 190.678C276.621 190.056 276.407 189.249 276.459 188.435C276.512 187.62 276.826 186.864 277.333 186.333C277.84 185.803 278.498 185.541 279.163 185.605C279.492 185.637 279.813 185.748 280.107 185.932C280.401 186.115 280.662 186.368 280.877 186.676C281.091 186.984 281.254 187.34 281.356 187.725C281.458 188.11 281.497 188.516 281.471 188.919C281.445 189.322 281.354 189.716 281.204 190.076C281.054 190.437 280.848 190.757 280.597 191.02C280.346 191.283 280.055 191.482 279.741 191.607Z" fill="#266B48"/>
<path d="M284.456 196.7C284.142 196.825 283.811 196.873 283.482 196.841C282.818 196.777 282.201 196.391 281.768 195.77C281.336 195.148 281.122 194.341 281.174 193.527C281.227 192.712 281.541 191.956 282.048 191.426C282.555 190.895 283.213 190.633 283.878 190.697C284.207 190.729 284.527 190.84 284.821 191.024C285.115 191.208 285.377 191.461 285.591 191.768C285.806 192.076 285.969 192.432 286.071 192.817C286.172 193.202 286.212 193.608 286.186 194.011C286.16 194.415 286.069 194.808 285.919 195.168C285.769 195.529 285.563 195.85 285.312 196.112C285.061 196.375 284.77 196.575 284.456 196.7Z" fill="#266B48"/>
<path d="M284.818 203.792C284.311 204.322 283.653 204.584 282.988 204.52C282.324 204.456 281.707 204.071 281.274 203.449C280.842 202.828 280.628 202.021 280.68 201.206C280.733 200.391 281.047 199.636 281.554 199.105C282.061 198.574 282.719 198.312 283.384 198.377C284.048 198.441 284.665 198.826 285.097 199.448C285.53 200.069 285.744 200.876 285.692 201.691C285.639 202.505 285.325 203.261 284.818 203.792Z" fill="#266B48"/>
<path d="M279.461 208.683C278.954 209.213 278.296 209.475 277.631 209.411C276.967 209.347 276.35 208.962 275.917 208.34C275.484 207.719 275.271 206.912 275.323 206.097C275.375 205.282 275.69 204.527 276.197 203.996C276.704 203.465 277.362 203.203 278.026 203.268C278.691 203.332 279.307 203.717 279.74 204.339C280.173 204.96 280.387 205.767 280.334 206.582C280.282 207.396 279.968 208.152 279.461 208.683Z" fill="#266B48"/>
<path d="M298.444 231.187C297.83 231.829 297.068 232.209 296.273 232.281C296.216 232.535 296.138 232.782 296.039 233.018C295.851 233.468 295.592 233.868 295.278 234.196C294.963 234.523 294.599 234.772 294.207 234.927C293.814 235.082 293.4 235.141 292.989 235.1C292.578 235.059 292.177 234.919 291.81 234.688C291.443 234.457 291.116 234.14 290.849 233.755C290.582 233.369 290.379 232.923 290.253 232.442C290.126 231.96 290.079 231.453 290.112 230.949C290.178 230.151 290.397 229.387 290.747 228.723C290.98 228.265 291.12 227.746 291.156 227.208C291.191 226.671 291.12 226.13 290.95 225.633C290.685 224.895 290.567 224.091 290.605 223.287C290.67 222.268 291.063 221.324 291.697 220.66C292.331 219.997 293.153 219.67 293.984 219.75C294.815 219.83 295.585 220.312 296.126 221.089C296.539 221.681 296.793 222.409 296.86 223.173C297.636 223.397 298.339 223.918 298.863 224.67C299.512 225.603 299.833 226.813 299.754 228.035C299.675 229.257 299.204 230.391 298.444 231.187Z" fill="#266B48"/>
<path d="M300.447 222.458C300.134 222.583 299.803 222.631 299.474 222.599C298.809 222.535 298.192 222.149 297.76 221.528C297.327 220.906 297.113 220.099 297.166 219.285C297.218 218.47 297.532 217.714 298.039 217.184C298.546 216.653 299.204 216.391 299.869 216.455C300.198 216.487 300.519 216.598 300.813 216.782C301.107 216.966 301.368 217.219 301.583 217.526C301.797 217.834 301.96 218.191 302.062 218.575C302.164 218.96 302.203 219.366 302.177 219.769C302.151 220.173 302.06 220.566 301.91 220.926C301.761 221.287 301.554 221.608 301.303 221.87C301.052 222.133 300.761 222.333 300.447 222.458Z" fill="#266B48"/>
<path d="M305.162 227.55C304.848 227.675 304.517 227.723 304.188 227.691C303.524 227.627 302.907 227.242 302.474 226.62C302.042 225.999 301.828 225.192 301.88 224.377C301.933 223.562 302.247 222.807 302.754 222.276C303.261 221.745 303.919 221.483 304.584 221.548C304.913 221.579 305.233 221.69 305.527 221.874C305.822 222.058 306.083 222.311 306.298 222.619C306.512 222.926 306.675 223.283 306.777 223.668C306.878 224.052 306.918 224.458 306.892 224.862C306.866 225.265 306.775 225.658 306.625 226.019C306.475 226.379 306.269 226.7 306.018 226.963C305.767 227.225 305.476 227.425 305.162 227.55Z" fill="#266B48"/>
<path d="M305.524 234.642C305.017 235.173 304.359 235.435 303.694 235.37C303.03 235.306 302.413 234.921 301.98 234.299C301.548 233.678 301.334 232.871 301.386 232.056C301.439 231.242 301.753 230.486 302.26 229.955C302.767 229.425 303.425 229.163 304.09 229.227C304.754 229.291 305.371 229.676 305.803 230.298C306.236 230.919 306.45 231.726 306.398 232.541C306.345 233.356 306.031 234.111 305.524 234.642Z" fill="#266B48"/>
<path d="M300.167 239.533C299.66 240.064 299.002 240.326 298.337 240.261C297.673 240.197 297.056 239.812 296.623 239.19C296.19 238.569 295.977 237.762 296.029 236.947C296.082 236.133 296.396 235.377 296.903 234.846C297.41 234.316 298.068 234.054 298.732 234.118C299.397 234.182 300.013 234.567 300.446 235.189C300.879 235.81 301.093 236.617 301.04 237.432C300.988 238.247 300.674 239.002 300.167 239.533Z" fill="#266B48"/>
<path d="M344.9 200.984C344.196 201.466 343.388 201.655 342.597 201.534C342.5 201.77 342.384 201.993 342.249 202.2C341.992 202.596 341.675 202.926 341.314 203.172C340.953 203.417 340.556 203.573 340.146 203.63C339.736 203.688 339.321 203.646 338.925 203.506C338.528 203.367 338.158 203.133 337.835 202.819C337.512 202.504 337.243 202.114 337.042 201.672C336.842 201.23 336.715 200.743 336.668 200.241C336.622 199.738 336.656 199.229 336.769 198.743C336.962 197.977 337.3 197.28 337.749 196.714C338.051 196.321 338.272 195.846 338.393 195.327C338.513 194.808 338.531 194.262 338.443 193.733C338.302 192.946 338.315 192.129 338.481 191.349C338.709 190.367 339.246 189.535 339.973 189.037C340.701 188.54 341.56 188.417 342.362 188.696C343.163 188.975 343.842 189.633 344.248 190.525C344.557 191.205 344.689 191.98 344.633 192.745C345.358 193.152 345.963 193.832 346.356 194.696C346.843 195.767 346.964 197.03 346.691 198.21C346.418 199.389 345.774 200.387 344.9 200.984Z" fill="#266B48"/>
<path d="M348.265 192.908C347.937 192.955 347.605 192.922 347.287 192.812C346.646 192.589 346.103 192.063 345.779 191.349C345.454 190.635 345.374 189.793 345.556 189.006C345.738 188.22 346.167 187.555 346.749 187.157C347.331 186.759 348.019 186.66 348.66 186.884C348.977 186.994 349.274 187.18 349.533 187.431C349.792 187.682 350.008 187.993 350.169 188.347C350.329 188.7 350.432 189.089 350.47 189.491C350.508 189.893 350.482 190.3 350.391 190.689C350.301 191.078 350.15 191.442 349.945 191.759C349.74 192.077 349.486 192.342 349.198 192.539C348.91 192.736 348.593 192.861 348.265 192.908Z" fill="#266B48"/>
<path d="M352.071 199.037C351.743 199.084 351.411 199.051 351.094 198.941C350.452 198.718 349.91 198.192 349.585 197.478C349.26 196.764 349.18 195.922 349.362 195.135C349.544 194.349 349.973 193.684 350.555 193.286C351.138 192.888 351.825 192.789 352.466 193.013C352.784 193.123 353.08 193.309 353.339 193.56C353.598 193.811 353.814 194.122 353.975 194.476C354.136 194.829 354.238 195.218 354.276 195.62C354.315 196.022 354.288 196.429 354.198 196.818C354.108 197.207 353.956 197.571 353.751 197.888C353.546 198.206 353.293 198.471 353.004 198.668C352.716 198.865 352.399 198.99 352.071 199.037Z" fill="#266B48"/>
<path d="M351.289 206.078C350.706 206.476 350.019 206.575 349.378 206.352C348.737 206.128 348.194 205.602 347.869 204.888C347.544 204.175 347.464 203.332 347.646 202.546C347.828 201.76 348.258 201.094 348.84 200.696C349.422 200.298 350.109 200.2 350.75 200.423C351.392 200.646 351.934 201.173 352.259 201.886C352.584 202.6 352.664 203.443 352.482 204.229C352.3 205.015 351.871 205.68 351.289 206.078Z" fill="#266B48"/>
<path d="M345.252 209.583C344.67 209.981 343.982 210.079 343.341 209.856C342.7 209.633 342.157 209.107 341.832 208.393C341.508 207.679 341.427 206.837 341.609 206.051C341.791 205.264 342.221 204.599 342.803 204.201C343.385 203.803 344.072 203.705 344.714 203.928C345.355 204.151 345.898 204.677 346.222 205.391C346.547 206.105 346.627 206.947 346.445 207.733C346.263 208.519 345.834 209.185 345.252 209.583Z" fill="#266B48"/>
<path d="M360.256 236.222C359.551 236.704 358.743 236.893 357.952 236.772C357.856 237.008 357.739 237.231 357.605 237.438C357.348 237.834 357.03 238.164 356.669 238.41C356.308 238.655 355.912 238.811 355.502 238.868C355.092 238.926 354.677 238.884 354.28 238.744C353.884 238.605 353.513 238.371 353.19 238.057C352.867 237.742 352.598 237.352 352.398 236.91C352.198 236.468 352.071 235.981 352.024 235.479C351.977 234.976 352.011 234.467 352.125 233.981C352.318 233.215 352.655 232.518 353.104 231.952C353.406 231.559 353.627 231.084 353.748 230.565C353.869 230.046 353.886 229.5 353.799 228.971C353.657 228.184 353.671 227.367 353.837 226.587C354.064 225.605 354.601 224.773 355.329 224.275C356.056 223.778 356.916 223.655 357.717 223.934C358.519 224.213 359.197 224.871 359.603 225.763C359.913 226.443 360.044 227.218 359.988 227.983C360.713 228.39 361.319 229.07 361.712 229.934C362.199 231.005 362.319 232.268 362.046 233.448C361.773 234.627 361.129 235.625 360.256 236.222Z" fill="#266B48"/>
<path d="M363.62 228.146C363.292 228.193 362.96 228.16 362.643 228.05C362.001 227.827 361.459 227.301 361.134 226.587C360.809 225.873 360.729 225.031 360.911 224.244C361.093 223.458 361.522 222.793 362.105 222.395C362.687 221.997 363.374 221.898 364.015 222.122C364.333 222.232 364.629 222.418 364.888 222.669C365.147 222.92 365.363 223.231 365.524 223.585C365.685 223.938 365.787 224.327 365.825 224.729C365.864 225.131 365.837 225.538 365.747 225.927C365.657 226.316 365.505 226.68 365.3 226.997C365.095 227.315 364.842 227.58 364.553 227.777C364.265 227.974 363.948 228.099 363.62 228.146Z" fill="#266B48"/>
<path d="M367.427 234.275C367.099 234.322 366.767 234.29 366.449 234.179C365.808 233.956 365.265 233.43 364.94 232.716C364.616 232.002 364.535 231.16 364.717 230.373C364.899 229.587 365.329 228.922 365.911 228.524C366.493 228.126 367.18 228.027 367.822 228.251C368.139 228.361 368.436 228.547 368.695 228.798C368.954 229.049 369.17 229.36 369.33 229.714C369.491 230.067 369.594 230.456 369.632 230.858C369.67 231.26 369.643 231.667 369.553 232.056C369.463 232.445 369.311 232.809 369.107 233.126C368.902 233.444 368.648 233.709 368.36 233.906C368.072 234.103 367.754 234.228 367.427 234.275Z" fill="#266B48"/>
<path d="M366.644 241.316C366.062 241.714 365.375 241.813 364.733 241.59C364.092 241.366 363.549 240.84 363.225 240.126C362.9 239.413 362.82 238.57 363.002 237.784C363.184 236.998 363.613 236.333 364.195 235.934C364.777 235.536 365.465 235.438 366.106 235.661C366.747 235.884 367.29 236.411 367.615 237.124C367.939 237.838 368.02 238.681 367.838 239.467C367.656 240.253 367.226 240.918 366.644 241.316Z" fill="#266B48"/>
<path d="M360.607 244.821C360.025 245.219 359.338 245.317 358.696 245.094C358.055 244.871 357.512 244.345 357.188 243.631C356.863 242.917 356.783 242.075 356.965 241.289C357.147 240.502 357.576 239.837 358.158 239.439C358.74 239.041 359.428 238.943 360.069 239.166C360.71 239.389 361.253 239.915 361.578 240.629C361.903 241.343 361.983 242.185 361.801 242.971C361.619 243.757 361.189 244.423 360.607 244.821Z" fill="#266B48"/>
<path d="M403.9 214.469C403.196 214.951 402.388 215.14 401.597 215.019C401.5 215.255 401.384 215.478 401.249 215.686C400.992 216.082 400.675 216.412 400.314 216.657C399.953 216.902 399.556 217.058 399.146 217.116C398.736 217.173 398.321 217.131 397.925 216.992C397.528 216.852 397.158 216.619 396.835 216.304C396.512 215.989 396.243 215.599 396.042 215.157C395.842 214.715 395.715 214.229 395.668 213.726C395.622 213.223 395.656 212.715 395.769 212.228C395.962 211.463 396.3 210.765 396.749 210.199C397.051 209.807 397.272 209.331 397.393 208.812C397.513 208.294 397.531 207.747 397.443 207.218C397.302 206.431 397.315 205.614 397.481 204.835C397.709 203.852 398.246 203.02 398.973 202.523C399.701 202.025 400.56 201.902 401.362 202.181C402.163 202.46 402.842 203.118 403.248 204.01C403.557 204.691 403.689 205.465 403.633 206.23C404.358 206.637 404.963 207.318 405.356 208.181C405.843 209.252 405.964 210.516 405.691 211.695C405.418 212.874 404.774 213.872 403.9 214.469Z" fill="#266B48"/>
<path d="M407.265 206.394C406.937 206.44 406.605 206.408 406.287 206.297C405.646 206.074 405.103 205.548 404.779 204.834C404.454 204.12 404.374 203.278 404.556 202.492C404.738 201.706 405.167 201.04 405.749 200.642C406.331 200.244 407.019 200.146 407.66 200.369C407.977 200.479 408.274 200.665 408.533 200.916C408.792 201.167 409.008 201.479 409.169 201.832C409.329 202.185 409.432 202.574 409.47 202.976C409.508 203.378 409.482 203.785 409.391 204.174C409.301 204.564 409.15 204.927 408.945 205.245C408.74 205.562 408.486 205.827 408.198 206.024C407.91 206.221 407.593 206.347 407.265 206.394Z" fill="#266B48"/>
<path d="M411.071 212.523C410.743 212.57 410.411 212.537 410.094 212.426C409.452 212.203 408.91 211.677 408.585 210.963C408.26 210.249 408.18 209.407 408.362 208.621C408.544 207.835 408.973 207.169 409.555 206.771C410.138 206.373 410.825 206.275 411.466 206.498C411.784 206.608 412.08 206.794 412.339 207.045C412.598 207.297 412.814 207.608 412.975 207.961C413.136 208.314 413.238 208.703 413.276 209.105C413.315 209.507 413.288 209.914 413.198 210.303C413.108 210.693 412.956 211.056 412.751 211.374C412.546 211.691 412.293 211.956 412.004 212.153C411.716 212.35 411.399 212.476 411.071 212.523Z" fill="#266B48"/>
<path d="M410.289 219.564C409.706 219.962 409.019 220.06 408.378 219.837C407.737 219.614 407.194 219.087 406.869 218.374C406.544 217.66 406.464 216.817 406.646 216.031C406.828 215.245 407.258 214.58 407.84 214.182C408.422 213.784 409.109 213.685 409.75 213.908C410.392 214.132 410.934 214.658 411.259 215.372C411.584 216.085 411.664 216.928 411.482 217.714C411.3 218.5 410.871 219.165 410.289 219.564Z" fill="#266B48"/>
<path d="M404.252 223.068C403.67 223.466 402.982 223.565 402.341 223.341C401.7 223.118 401.157 222.592 400.832 221.878C400.508 221.165 400.427 220.322 400.609 219.536C400.791 218.75 401.221 218.084 401.803 217.686C402.385 217.288 403.072 217.19 403.714 217.413C404.355 217.636 404.898 218.162 405.222 218.876C405.547 219.59 405.627 220.432 405.445 221.219C405.263 222.005 404.834 222.67 404.252 223.068Z" fill="#266B48"/>
<path d="M419.256 249.707C418.551 250.189 417.743 250.378 416.952 250.257C416.856 250.493 416.739 250.716 416.605 250.924C416.348 251.32 416.03 251.65 415.669 251.895C415.308 252.14 414.912 252.296 414.502 252.354C414.092 252.411 413.677 252.369 413.28 252.23C412.884 252.09 412.513 251.857 412.19 251.542C411.867 251.227 411.598 250.837 411.398 250.395C411.198 249.953 411.071 249.466 411.024 248.964C410.977 248.461 411.011 247.952 411.125 247.466C411.318 246.701 411.655 246.003 412.104 245.437C412.406 245.045 412.627 244.569 412.748 244.05C412.869 243.532 412.886 242.985 412.799 242.456C412.657 241.669 412.671 240.852 412.837 240.073C413.064 239.09 413.601 238.258 414.329 237.761C415.056 237.263 415.916 237.14 416.717 237.419C417.519 237.698 418.197 238.356 418.603 239.248C418.913 239.929 419.044 240.703 418.988 241.468C419.713 241.875 420.319 242.556 420.712 243.419C421.199 244.49 421.319 245.754 421.046 246.933C420.773 248.112 420.129 249.11 419.256 249.707Z" fill="#266B48"/>
<path d="M422.62 241.632C422.292 241.678 421.96 241.646 421.643 241.535C421.001 241.312 420.459 240.786 420.134 240.072C419.809 239.358 419.729 238.516 419.911 237.73C420.093 236.943 420.522 236.278 421.105 235.88C421.687 235.482 422.374 235.384 423.015 235.607C423.333 235.717 423.629 235.903 423.888 236.154C424.147 236.405 424.363 236.717 424.524 237.07C424.685 237.423 424.787 237.812 424.825 238.214C424.864 238.616 424.837 239.023 424.747 239.412C424.657 239.802 424.505 240.165 424.3 240.483C424.095 240.8 423.842 241.065 423.553 241.262C423.265 241.459 422.948 241.585 422.62 241.632Z" fill="#266B48"/>
<path d="M426.427 247.761C426.099 247.807 425.767 247.775 425.449 247.664C424.808 247.441 424.265 246.915 423.94 246.201C423.616 245.487 423.535 244.645 423.717 243.859C423.899 243.073 424.329 242.407 424.911 242.009C425.493 241.611 426.18 241.513 426.822 241.736C427.139 241.846 427.436 242.032 427.695 242.283C427.954 242.534 428.17 242.846 428.33 243.199C428.491 243.552 428.594 243.941 428.632 244.343C428.67 244.745 428.643 245.152 428.553 245.541C428.463 245.931 428.311 246.294 428.107 246.612C427.902 246.929 427.648 247.194 427.36 247.391C427.072 247.588 426.754 247.714 426.427 247.761Z" fill="#266B48"/>
<path d="M425.644 254.801C425.062 255.2 424.375 255.298 423.733 255.075C423.092 254.852 422.549 254.325 422.225 253.612C421.9 252.898 421.82 252.055 422.002 251.269C422.184 250.483 422.613 249.818 423.195 249.42C423.777 249.021 424.465 248.923 425.106 249.146C425.747 249.369 426.29 249.896 426.615 250.609C426.939 251.323 427.02 252.166 426.838 252.952C426.656 253.738 426.226 254.403 425.644 254.801Z" fill="#266B48"/>
<path d="M419.607 258.306C419.025 258.704 418.338 258.802 417.696 258.579C417.055 258.356 416.512 257.83 416.188 257.116C415.863 256.403 415.783 255.56 415.965 254.774C416.147 253.988 416.576 253.322 417.158 252.924C417.74 252.526 418.428 252.428 419.069 252.651C419.71 252.874 420.253 253.4 420.578 254.114C420.903 254.828 420.983 255.67 420.801 256.457C420.619 257.243 420.189 257.908 419.607 258.306Z" fill="#266B48"/>
<path d="M460.114 239.189C459.418 239.69 458.614 239.901 457.821 239.801C457.728 240.039 457.616 240.265 457.485 240.476C457.236 240.879 456.924 241.218 456.568 241.473C456.211 241.728 455.817 241.894 455.409 241.962C455 242.031 454.584 242 454.185 241.871C453.786 241.743 453.411 241.519 453.083 241.213C452.754 240.907 452.478 240.525 452.27 240.088C452.062 239.651 451.927 239.168 451.871 238.667C451.815 238.166 451.84 237.656 451.945 237.167C452.124 236.396 452.449 235.69 452.888 235.112C453.183 234.712 453.395 234.23 453.507 233.708C453.618 233.187 453.626 232.639 453.529 232.113C453.373 231.33 453.372 230.513 453.524 229.729C453.734 228.741 454.256 227.895 454.974 227.378C455.693 226.861 456.55 226.715 457.356 226.972C458.162 227.229 458.852 227.869 459.274 228.75C459.596 229.422 459.742 230.192 459.699 230.959C460.431 231.346 461.049 232.01 461.457 232.863C461.963 233.92 462.106 235.181 461.854 236.367C461.602 237.553 460.977 238.568 460.114 239.189Z" fill="#266B48"/>
<path d="M463.333 231.025C463.006 231.08 462.674 231.057 462.354 230.955C461.709 230.749 461.157 230.237 460.82 229.532C460.482 228.828 460.387 227.987 460.555 227.197C460.723 226.406 461.14 225.729 461.715 225.315C462.29 224.902 462.975 224.785 463.62 224.991C463.94 225.093 464.24 225.271 464.503 225.515C464.766 225.759 464.988 226.064 465.155 226.413C465.322 226.762 465.431 227.148 465.477 227.549C465.522 227.949 465.503 228.357 465.42 228.749C465.336 229.14 465.191 229.508 464.992 229.831C464.793 230.154 464.544 230.425 464.26 230.63C463.975 230.835 463.66 230.969 463.333 231.025Z" fill="#266B48"/>
<path d="M467.248 237.05C466.921 237.106 466.589 237.082 466.269 236.98C465.624 236.774 465.072 236.262 464.735 235.558C464.397 234.853 464.302 234.013 464.47 233.222C464.638 232.431 465.055 231.754 465.63 231.341C466.205 230.927 466.89 230.81 467.535 231.016C467.855 231.118 468.155 231.296 468.418 231.54C468.681 231.784 468.903 232.089 469.07 232.438C469.237 232.787 469.346 233.173 469.392 233.574C469.437 233.975 469.418 234.382 469.335 234.774C469.252 235.166 469.106 235.533 468.907 235.856C468.708 236.179 468.459 236.45 468.175 236.655C467.89 236.86 467.575 236.994 467.248 237.05Z" fill="#266B48"/>
<path d="M466.592 244.11C466.017 244.524 465.332 244.641 464.687 244.435C464.041 244.229 463.489 243.717 463.152 243.013C462.815 242.308 462.719 241.467 462.887 240.677C463.055 239.886 463.472 239.209 464.047 238.795C464.622 238.382 465.308 238.265 465.953 238.471C466.598 238.677 467.15 239.188 467.487 239.893C467.825 240.598 467.92 241.438 467.752 242.229C467.584 243.02 467.167 243.696 466.592 244.11Z" fill="#266B48"/>
<path d="M460.619 247.776C460.044 248.19 459.359 248.307 458.714 248.101C458.069 247.895 457.517 247.383 457.179 246.679C456.842 245.974 456.747 245.134 456.915 244.343C457.082 243.552 457.5 242.875 458.075 242.462C458.65 242.048 459.335 241.931 459.98 242.137C460.625 242.343 461.177 242.854 461.515 243.559C461.852 244.264 461.947 245.104 461.779 245.895C461.611 246.686 461.194 247.363 460.619 247.776Z" fill="#266B48"/>
<path d="M476.097 274.005C475.401 274.506 474.596 274.717 473.803 274.617C473.711 274.855 473.599 275.082 473.468 275.293C473.218 275.696 472.906 276.034 472.55 276.289C472.194 276.544 471.8 276.711 471.391 276.779C470.982 276.847 470.566 276.816 470.167 276.688C469.768 276.559 469.394 276.336 469.065 276.03C468.737 275.724 468.461 275.341 468.253 274.904C468.045 274.468 467.909 273.985 467.853 273.484C467.797 272.983 467.823 272.473 467.928 271.984C468.107 271.213 468.432 270.507 468.87 269.928C469.165 269.528 469.378 269.047 469.489 268.525C469.601 268.003 469.608 267.456 469.511 266.93C469.356 266.147 469.354 265.33 469.507 264.546C469.717 263.557 470.238 262.711 470.957 262.194C471.675 261.677 472.532 261.531 473.339 261.788C474.145 262.046 474.835 262.685 475.257 263.566C475.578 264.238 475.724 265.009 475.682 265.776C476.413 266.163 477.031 266.827 477.44 267.68C477.946 268.737 478.089 269.997 477.837 271.184C477.585 272.37 476.959 273.385 476.097 274.005Z" fill="#266B48"/>
<path d="M479.316 265.841C478.989 265.897 478.656 265.873 478.337 265.771C477.691 265.565 477.139 265.054 476.802 264.349C476.465 263.644 476.369 262.804 476.537 262.013C476.705 261.222 477.122 260.546 477.697 260.132C478.272 259.718 478.958 259.601 479.603 259.807C479.922 259.909 480.222 260.087 480.485 260.331C480.749 260.575 480.97 260.88 481.137 261.229C481.304 261.578 481.414 261.964 481.459 262.365C481.505 262.766 481.485 263.174 481.402 263.565C481.319 263.957 481.174 264.325 480.975 264.647C480.776 264.97 480.527 265.242 480.242 265.447C479.957 265.651 479.643 265.785 479.316 265.841Z" fill="#266B48"/>
<path d="M483.231 271.866C482.904 271.922 482.571 271.898 482.252 271.796C481.607 271.59 481.055 271.079 480.717 270.374C480.38 269.669 480.284 268.829 480.452 268.038C480.62 267.247 481.038 266.571 481.612 266.157C482.187 265.743 482.873 265.627 483.518 265.832C483.837 265.934 484.137 266.112 484.401 266.356C484.664 266.6 484.885 266.906 485.052 267.255C485.219 267.604 485.329 267.989 485.374 268.39C485.42 268.791 485.4 269.199 485.317 269.591C485.234 269.982 485.089 270.35 484.89 270.673C484.691 270.995 484.442 271.267 484.157 271.472C483.872 271.677 483.558 271.811 483.231 271.866Z" fill="#266B48"/>
<path d="M482.574 278.927C481.999 279.34 481.314 279.457 480.669 279.251C480.024 279.045 479.472 278.534 479.134 277.829C478.797 277.124 478.702 276.284 478.87 275.493C479.038 274.702 479.455 274.026 480.03 273.612C480.605 273.198 481.29 273.081 481.935 273.287C482.58 273.493 483.132 274.005 483.47 274.709C483.807 275.414 483.902 276.255 483.734 277.045C483.567 277.836 483.149 278.513 482.574 278.927Z" fill="#266B48"/>
<path d="M476.602 282.593C476.027 283.006 475.341 283.123 474.696 282.917C474.051 282.711 473.499 282.2 473.162 281.495C472.824 280.79 472.729 279.95 472.897 279.159C473.065 278.368 473.482 277.692 474.057 277.278C474.632 276.864 475.317 276.748 475.962 276.953C476.608 277.159 477.16 277.671 477.497 278.376C477.834 279.08 477.93 279.921 477.762 280.712C477.594 281.502 477.177 282.179 476.602 282.593Z" fill="#266B48"/>
<path d="M514.652 238.234C514.124 238.982 513.418 239.499 512.641 239.717C512.616 239.979 512.569 240.238 512.501 240.489C512.37 240.969 512.163 241.412 511.893 241.794C511.622 242.176 511.293 242.489 510.924 242.715C510.555 242.941 510.153 243.076 509.742 243.111C509.33 243.147 508.917 243.083 508.525 242.923C508.134 242.762 507.772 242.509 507.461 242.178C507.149 241.846 506.894 241.443 506.71 240.99C506.525 240.537 506.416 240.045 506.387 239.54C506.354 238.74 506.476 237.943 506.74 237.222C506.914 236.727 506.989 236.188 506.958 235.65C506.926 235.112 506.79 234.591 506.56 234.131C506.208 233.45 505.992 232.677 505.93 231.875C505.87 230.856 506.142 229.85 506.686 229.077C507.231 228.304 508.004 227.828 508.835 227.753C509.666 227.679 510.487 228.012 511.118 228.68C511.599 229.19 511.939 229.862 512.1 230.605C512.894 230.683 513.654 231.068 514.264 231.714C515.021 232.516 515.487 233.653 515.559 234.876C515.632 236.098 515.306 237.306 514.652 238.234Z" fill="#266B48"/>
<path d="M515.558 229.234C515.263 229.416 514.942 229.524 514.613 229.554C513.948 229.613 513.291 229.346 512.786 228.812C512.282 228.278 511.971 227.52 511.923 226.705C511.874 225.89 512.092 225.084 512.528 224.466C512.964 223.848 513.582 223.467 514.247 223.407C514.576 223.378 514.907 223.428 515.22 223.555C515.533 223.683 515.823 223.884 516.073 224.149C516.323 224.413 516.527 224.736 516.676 225.097C516.824 225.459 516.912 225.853 516.936 226.256C516.96 226.66 516.919 227.065 516.816 227.449C516.712 227.833 516.547 228.189 516.332 228.495C516.116 228.801 515.853 229.052 515.558 229.234Z" fill="#266B48"/>
<path d="M520.846 233.395C520.551 233.577 520.23 233.685 519.9 233.715C519.236 233.774 518.579 233.508 518.074 232.973C517.57 232.439 517.259 231.681 517.211 230.866C517.162 230.051 517.38 229.246 517.816 228.627C518.251 228.009 518.87 227.628 519.535 227.569C519.864 227.539 520.195 227.59 520.508 227.717C520.821 227.844 521.111 228.046 521.361 228.31C521.611 228.575 521.815 228.897 521.964 229.259C522.112 229.62 522.2 230.014 522.224 230.418C522.248 230.821 522.207 231.227 522.103 231.611C522 231.995 521.835 232.35 521.619 232.656C521.404 232.962 521.141 233.214 520.846 233.395Z" fill="#266B48"/>
<path d="M522.077 240.339C521.641 240.957 521.022 241.338 520.358 241.398C519.693 241.457 519.036 241.19 518.532 240.656C518.027 240.122 517.717 239.364 517.668 238.549C517.62 237.734 517.837 236.928 518.273 236.31C518.709 235.692 519.327 235.311 519.992 235.251C520.657 235.192 521.314 235.459 521.818 235.993C522.322 236.527 522.633 237.285 522.682 238.1C522.73 238.915 522.512 239.721 522.077 240.339Z" fill="#266B48"/>
<path d="M517.383 246.165C516.947 246.784 516.329 247.165 515.664 247.224C514.999 247.284 514.342 247.017 513.838 246.483C513.334 245.948 513.023 245.19 512.975 244.375C512.926 243.56 513.144 242.755 513.579 242.136C514.015 241.518 514.634 241.137 515.298 241.078C515.963 241.018 516.62 241.285 517.125 241.819C517.629 242.354 517.94 243.112 517.988 243.927C518.037 244.742 517.819 245.547 517.383 246.165Z" fill="#266B48"/>
<path d="M538.92 264.898C538.392 265.647 537.686 266.163 536.909 266.382C536.884 266.644 536.837 266.902 536.768 267.154C536.637 267.633 536.431 268.077 536.16 268.459C535.89 268.841 535.561 269.154 535.192 269.38C534.823 269.606 534.421 269.74 534.009 269.776C533.598 269.812 533.184 269.747 532.793 269.587C532.402 269.427 532.04 269.174 531.728 268.842C531.417 268.511 531.162 268.107 530.977 267.655C530.793 267.202 530.683 266.709 530.654 266.205C530.622 265.405 530.744 264.608 531.008 263.887C531.182 263.392 531.257 262.852 531.225 262.314C531.194 261.776 531.058 261.255 530.828 260.795C530.475 260.115 530.259 259.342 530.198 258.54C530.137 257.521 530.409 256.514 530.954 255.741C531.499 254.968 532.272 254.492 533.103 254.418C533.934 254.344 534.755 254.677 535.385 255.345C535.866 255.854 536.206 256.527 536.368 257.269C537.162 257.347 537.921 257.733 538.532 258.379C539.288 259.18 539.754 260.318 539.827 261.54C539.9 262.763 539.573 263.971 538.92 264.898Z" fill="#266B48"/>
<path d="M539.826 255.898C539.531 256.08 539.209 256.189 538.88 256.218C538.215 256.278 537.558 256.011 537.054 255.477C536.55 254.942 536.239 254.184 536.19 253.369C536.142 252.554 536.36 251.749 536.795 251.131C537.231 250.512 537.85 250.131 538.514 250.072C538.844 250.043 539.174 250.093 539.488 250.22C539.801 250.347 540.091 250.549 540.34 250.814C540.59 251.078 540.795 251.4 540.943 251.762C541.091 252.123 541.18 252.517 541.204 252.921C541.228 253.324 541.187 253.73 541.083 254.114C540.979 254.498 540.815 254.853 540.599 255.16C540.383 255.466 540.12 255.717 539.826 255.898Z" fill="#266B48"/>
<path d="M545.113 260.06C544.818 260.241 544.497 260.35 544.168 260.379C543.503 260.439 542.846 260.172 542.342 259.638C541.837 259.104 541.527 258.346 541.478 257.531C541.43 256.716 541.647 255.91 542.083 255.292C542.519 254.673 543.137 254.293 543.802 254.233C544.131 254.204 544.462 254.254 544.775 254.381C545.089 254.509 545.379 254.71 545.628 254.975C545.878 255.239 546.083 255.562 546.231 255.923C546.379 256.285 546.468 256.679 546.492 257.082C546.516 257.486 546.475 257.891 546.371 258.275C546.267 258.659 546.103 259.015 545.887 259.321C545.671 259.627 545.408 259.878 545.113 260.06Z" fill="#266B48"/>
<path d="M546.344 267.004C545.908 267.622 545.29 268.003 544.625 268.062C543.96 268.122 543.304 267.855 542.799 267.321C542.295 266.786 541.984 266.028 541.936 265.213C541.887 264.398 542.105 263.593 542.54 262.975C542.976 262.356 543.595 261.975 544.259 261.916C544.924 261.857 545.581 262.123 546.086 262.658C546.59 263.192 546.901 263.95 546.949 264.765C546.998 265.58 546.78 266.385 546.344 267.004Z" fill="#266B48"/>
<path d="M541.651 272.83C541.215 273.448 540.597 273.829 539.932 273.889C539.267 273.948 538.61 273.681 538.106 273.147C537.601 272.613 537.291 271.855 537.242 271.04C537.194 270.225 537.411 269.419 537.847 268.801C538.283 268.183 538.901 267.802 539.566 267.742C540.231 267.683 540.888 267.95 541.392 268.484C541.897 269.018 542.207 269.776 542.256 270.591C542.304 271.406 542.087 272.212 541.651 272.83Z" fill="#266B48"/>
<path d="M561.061 223.835C560.791 224.767 560.285 225.562 559.625 226.111C559.679 226.366 559.712 226.628 559.722 226.893C559.742 227.398 559.681 227.903 559.542 228.379C559.402 228.855 559.188 229.293 558.91 229.668C558.633 230.042 558.298 230.346 557.925 230.562C557.552 230.778 557.148 230.901 556.736 230.926C556.324 230.95 555.912 230.875 555.523 230.704C555.135 230.533 554.778 230.27 554.472 229.93C554.167 229.59 553.919 229.18 553.743 228.723C553.476 227.991 553.355 227.194 553.388 226.405C553.404 225.866 553.314 225.33 553.126 224.842C552.938 224.355 552.657 223.93 552.307 223.603C551.777 223.125 551.348 222.501 551.053 221.78C550.696 220.857 550.652 219.798 550.932 218.836C551.211 217.874 551.791 217.087 552.544 216.649C553.296 216.21 554.16 216.157 554.945 216.499C555.544 216.761 556.06 217.236 556.429 217.857C557.193 217.577 558.014 217.599 558.774 217.931C559.716 218.342 560.486 219.195 560.915 220.302C561.344 221.409 561.397 222.68 561.061 223.835Z" fill="#266B48"/>
<path d="M559.247 215.044C559.026 215.344 558.759 215.588 558.461 215.762C557.858 216.112 557.167 216.155 556.539 215.881C555.911 215.607 555.398 215.039 555.112 214.3C554.826 213.562 554.791 212.715 555.014 211.945C555.238 211.175 555.702 210.546 556.304 210.195C556.602 210.022 556.925 209.922 557.255 209.901C557.585 209.881 557.914 209.94 558.225 210.076C558.536 210.211 558.822 210.421 559.067 210.692C559.312 210.963 559.511 211.291 559.653 211.657C559.794 212.022 559.876 212.418 559.893 212.822C559.909 213.226 559.861 213.631 559.75 214.012C559.64 214.393 559.469 214.744 559.247 215.044Z" fill="#266B48"/>
<path d="M565.406 216.575C565.184 216.876 564.917 217.119 564.619 217.293C564.017 217.644 563.326 217.687 562.698 217.413C562.07 217.138 561.556 216.57 561.27 215.832C560.984 215.093 560.949 214.246 561.173 213.476C561.396 212.706 561.86 212.077 562.462 211.726C562.76 211.553 563.084 211.453 563.413 211.432C563.743 211.412 564.073 211.471 564.383 211.607C564.694 211.743 564.981 211.952 565.225 212.223C565.47 212.495 565.669 212.822 565.811 213.188C565.953 213.553 566.034 213.949 566.051 214.354C566.067 214.758 566.019 215.162 565.908 215.543C565.798 215.924 565.627 216.275 565.406 216.575Z" fill="#266B48"/>
<path d="M568.604 222.501C568.381 223.271 567.917 223.901 567.315 224.251C566.712 224.602 566.021 224.645 565.393 224.371C564.765 224.097 564.252 223.528 563.966 222.79C563.68 222.052 563.645 221.205 563.868 220.435C564.092 219.665 564.556 219.035 565.158 218.685C565.76 218.334 566.451 218.291 567.079 218.565C567.707 218.839 568.221 219.408 568.507 220.146C568.793 220.884 568.828 221.732 568.604 222.501Z" fill="#266B48"/>
<path d="M565.95 230.016C565.727 230.786 565.263 231.415 564.661 231.766C564.059 232.117 563.367 232.16 562.739 231.885C562.111 231.611 561.598 231.043 561.312 230.305C561.026 229.566 560.991 228.719 561.215 227.949C561.438 227.179 561.902 226.55 562.504 226.199C563.106 225.849 563.797 225.806 564.425 226.08C565.053 226.354 565.567 226.923 565.853 227.661C566.139 228.399 566.174 229.246 565.95 230.016Z" fill="#266B48"/>
<path d="M591.558 237.916C591.288 238.848 590.782 239.643 590.122 240.192C590.176 240.447 590.209 240.709 590.219 240.974C590.239 241.479 590.178 241.984 590.039 242.46C589.899 242.936 589.685 243.374 589.408 243.748C589.13 244.123 588.795 244.427 588.422 244.643C588.049 244.859 587.645 244.982 587.233 245.007C586.821 245.031 586.409 244.956 586.021 244.785C585.632 244.614 585.275 244.351 584.97 244.011C584.664 243.671 584.416 243.261 584.24 242.804C583.973 242.072 583.852 241.275 583.885 240.486C583.901 239.947 583.811 239.411 583.623 238.923C583.435 238.436 583.154 238.011 582.804 237.684C582.274 237.206 581.845 236.582 581.55 235.861C581.193 234.938 581.149 233.879 581.429 232.917C581.708 231.955 582.288 231.168 583.041 230.729C583.793 230.291 584.657 230.238 585.442 230.58C586.041 230.841 586.557 231.317 586.926 231.938C587.69 231.658 588.511 231.68 589.271 232.012C590.213 232.423 590.983 233.276 591.412 234.383C591.841 235.49 591.894 236.761 591.558 237.916Z" fill="#266B48"/>
<path d="M589.744 229.125C589.523 229.425 589.256 229.669 588.958 229.843C588.356 230.193 587.664 230.236 587.036 229.962C586.408 229.688 585.895 229.119 585.609 228.381C585.323 227.643 585.288 226.796 585.512 226.026C585.735 225.256 586.199 224.627 586.801 224.276C587.099 224.102 587.422 224.003 587.752 223.982C588.082 223.962 588.411 224.021 588.722 224.157C589.033 224.292 589.319 224.502 589.564 224.773C589.809 225.044 590.008 225.372 590.15 225.737C590.291 226.103 590.373 226.499 590.39 226.903C590.406 227.307 590.358 227.712 590.247 228.093C590.137 228.474 589.966 228.825 589.744 229.125Z" fill="#266B48"/>
<path d="M595.903 230.656C595.681 230.956 595.414 231.2 595.116 231.374C594.514 231.725 593.823 231.768 593.195 231.493C592.567 231.219 592.053 230.651 591.767 229.912C591.481 229.174 591.446 228.327 591.67 227.557C591.893 226.787 592.357 226.158 592.959 225.807C593.257 225.634 593.581 225.534 593.91 225.513C594.24 225.493 594.57 225.552 594.881 225.688C595.192 225.823 595.478 226.033 595.723 226.304C595.967 226.575 596.166 226.903 596.308 227.269C596.45 227.634 596.531 228.03 596.548 228.434C596.565 228.839 596.516 229.243 596.405 229.624C596.295 230.005 596.124 230.356 595.903 230.656Z" fill="#266B48"/>
<path d="M599.101 236.582C598.878 237.352 598.414 237.982 597.812 238.332C597.209 238.683 596.518 238.726 595.89 238.452C595.262 238.178 594.749 237.609 594.463 236.871C594.177 236.133 594.142 235.285 594.365 234.516C594.589 233.746 595.053 233.116 595.655 232.766C596.257 232.415 596.948 232.372 597.576 232.646C598.204 232.92 598.718 233.489 599.004 234.227C599.29 234.965 599.325 235.812 599.101 236.582Z" fill="#266B48"/>
<path d="M596.447 244.097C596.224 244.867 595.76 245.496 595.158 245.847C594.556 246.198 593.865 246.24 593.237 245.966C592.609 245.692 592.095 245.124 591.809 244.385C591.523 243.647 591.488 242.8 591.712 242.03C591.935 241.26 592.399 240.631 593.001 240.28C593.603 239.93 594.294 239.887 594.922 240.161C595.55 240.435 596.064 241.003 596.35 241.742C596.636 242.48 596.671 243.327 596.447 244.097Z" fill="#266B48"/>
<path d="M603.177 195.053C602.906 195.985 602.4 196.78 601.74 197.328C601.794 197.583 601.827 197.845 601.838 198.11C601.858 198.615 601.796 199.12 601.657 199.597C601.517 200.073 601.303 200.51 601.026 200.885C600.748 201.259 600.414 201.563 600.04 201.779C599.667 201.995 599.263 202.119 598.851 202.143C598.439 202.168 598.027 202.092 597.639 201.922C597.25 201.751 596.893 201.488 596.588 201.148C596.282 200.808 596.034 200.398 595.858 199.94C595.592 199.209 595.47 198.412 595.503 197.623C595.519 197.084 595.429 196.548 595.241 196.06C595.053 195.572 594.772 195.147 594.422 194.82C593.893 194.343 593.463 193.718 593.169 192.998C592.811 192.075 592.767 191.016 593.047 190.053C593.326 189.091 593.906 188.304 594.659 187.866C595.411 187.428 596.275 187.374 597.06 187.717C597.659 187.978 598.175 188.454 598.544 189.074C599.308 188.794 600.129 188.816 600.889 189.148C601.831 189.559 602.601 190.412 603.03 191.52C603.459 192.627 603.512 193.898 603.177 195.053Z" fill="#266B48"/>
<path d="M601.363 186.261C601.141 186.562 600.874 186.806 600.576 186.979C599.974 187.33 599.283 187.373 598.655 187.099C598.027 186.825 597.513 186.256 597.227 185.518C596.941 184.78 596.906 183.932 597.13 183.162C597.353 182.393 597.817 181.763 598.419 181.413C598.717 181.239 599.041 181.139 599.37 181.119C599.7 181.098 600.03 181.157 600.341 181.293C600.651 181.429 600.938 181.638 601.183 181.909C601.427 182.181 601.626 182.508 601.768 182.874C601.91 183.239 601.991 183.636 602.008 184.04C602.025 184.444 601.976 184.848 601.865 185.229C601.755 185.61 601.584 185.961 601.363 186.261Z" fill="#266B48"/>
<path d="M607.521 187.793C607.3 188.093 607.032 188.337 606.734 188.51C606.132 188.861 605.441 188.904 604.813 188.63C604.185 188.356 603.671 187.787 603.385 187.049C603.099 186.311 603.064 185.464 603.288 184.694C603.511 183.924 603.975 183.294 604.577 182.944C604.876 182.77 605.199 182.67 605.528 182.65C605.858 182.629 606.188 182.689 606.499 182.824C606.81 182.96 607.096 183.169 607.341 183.441C607.586 183.712 607.785 184.04 607.926 184.405C608.068 184.771 608.149 185.167 608.166 185.571C608.183 185.975 608.134 186.379 608.024 186.76C607.913 187.142 607.742 187.492 607.521 187.793Z" fill="#266B48"/>
<path d="M610.719 193.719C610.496 194.489 610.032 195.118 609.43 195.469C608.828 195.819 608.137 195.862 607.509 195.588C606.881 195.314 606.367 194.746 606.081 194.007C605.795 193.269 605.76 192.422 605.984 191.652C606.207 190.882 606.671 190.253 607.273 189.902C607.875 189.552 608.566 189.509 609.194 189.783C609.822 190.057 610.336 190.625 610.622 191.364C610.908 192.102 610.943 192.949 610.719 193.719Z" fill="#266B48"/>
<path d="M608.066 201.234C607.842 202.003 607.378 202.633 606.776 202.983C606.174 203.334 605.483 203.377 604.855 203.103C604.227 202.829 603.713 202.26 603.427 201.522C603.141 200.784 603.106 199.937 603.33 199.167C603.553 198.397 604.017 197.767 604.619 197.417C605.222 197.066 605.913 197.023 606.541 197.297C607.169 197.571 607.682 198.14 607.968 198.878C608.254 199.616 608.289 200.464 608.066 201.234Z" fill="#266B48"/>
<path d="M633.674 209.133C633.403 210.066 632.897 210.861 632.237 211.409C632.292 211.664 632.324 211.926 632.335 212.191C632.355 212.696 632.293 213.201 632.154 213.677C632.015 214.154 631.8 214.591 631.523 214.966C631.245 215.34 630.911 215.644 630.538 215.86C630.164 216.076 629.76 216.2 629.348 216.224C628.936 216.249 628.524 216.173 628.136 216.002C627.747 215.832 627.39 215.569 627.085 215.229C626.779 214.889 626.531 214.478 626.355 214.021C626.089 213.289 625.967 212.492 626 211.704C626.016 211.164 625.927 210.628 625.738 210.141C625.55 209.653 625.269 209.228 624.919 208.901C624.39 208.424 623.96 207.799 623.666 207.078C623.308 206.156 623.264 205.097 623.544 204.134C623.823 203.172 624.403 202.385 625.156 201.947C625.909 201.509 626.772 201.455 627.557 201.798C628.156 202.059 628.672 202.535 629.041 203.155C629.805 202.875 630.626 202.897 631.386 203.229C632.328 203.64 633.099 204.493 633.528 205.6C633.956 206.708 634.009 207.979 633.674 209.133Z" fill="#266B48"/>
<path d="M631.86 200.342C631.638 200.643 631.371 200.887 631.073 201.06C630.471 201.411 629.78 201.454 629.152 201.18C628.524 200.906 628.01 200.337 627.724 199.599C627.438 198.86 627.403 198.013 627.627 197.243C627.85 196.473 628.314 195.844 628.916 195.493C629.215 195.32 629.538 195.22 629.867 195.199C630.197 195.179 630.527 195.238 630.838 195.374C631.149 195.51 631.435 195.719 631.68 195.99C631.925 196.262 632.123 196.589 632.265 196.955C632.407 197.32 632.488 197.717 632.505 198.121C632.522 198.525 632.473 198.929 632.363 199.31C632.252 199.691 632.081 200.042 631.86 200.342Z" fill="#266B48"/>
<path d="M638.018 201.874C637.797 202.174 637.529 202.418 637.231 202.591C636.629 202.942 635.938 202.985 635.31 202.711C634.682 202.437 634.168 201.868 633.882 201.13C633.596 200.392 633.561 199.544 633.785 198.775C634.009 198.005 634.472 197.375 635.075 197.025C635.373 196.851 635.696 196.751 636.025 196.731C636.355 196.71 636.685 196.769 636.996 196.905C637.307 197.041 637.593 197.25 637.838 197.522C638.083 197.793 638.282 198.121 638.423 198.486C638.565 198.852 638.646 199.248 638.663 199.652C638.68 200.056 638.631 200.46 638.521 200.841C638.41 201.223 638.239 201.573 638.018 201.874Z" fill="#266B48"/>
<path d="M641.216 207.8C640.993 208.57 640.529 209.199 639.927 209.55C639.325 209.9 638.634 209.943 638.006 209.669C637.378 209.395 636.864 208.826 636.578 208.088C636.292 207.35 636.257 206.503 636.481 205.733C636.704 204.963 637.168 204.334 637.77 203.983C638.372 203.632 639.063 203.589 639.691 203.864C640.319 204.138 640.833 204.706 641.119 205.444C641.405 206.183 641.44 207.03 641.216 207.8Z" fill="#266B48"/>
<path d="M638.563 215.314C638.339 216.084 637.875 216.714 637.273 217.064C636.671 217.415 635.98 217.458 635.352 217.184C634.724 216.91 634.21 216.341 633.924 215.603C633.638 214.865 633.603 214.017 633.827 213.248C634.05 212.478 634.514 211.848 635.116 211.498C635.719 211.147 636.41 211.104 637.038 211.378C637.666 211.652 638.179 212.221 638.465 212.959C638.751 213.697 638.786 214.545 638.563 215.314Z" fill="#266B48"/>
</svg>
