<svg width="62" height="62" viewBox="0 0 62 62" fill="none" xmlns="http://www.w3.org/2000/svg">
<circle cx="31" cy="31" r="31" fill="#C6E5D1"/>
<g clip-path="url(#clip0_2846_6)">
<path d="M31 16C23.2571 16 17 22.2571 17 30C17 37.7429 23.2571 44 31 44C38.7429 44 45 37.7429 45 30C45 22.2571 38.7429 16 31 16ZM31 41.6743C24.5657 41.6743 19.3257 36.4343 19.3257 30C19.3257 23.5657 24.5657 18.3257 31 18.3257C37.4343 18.3257 42.6743 23.5657 42.6743 30C42.6743 36.4343 37.4343 41.6743 31 41.6743Z" fill="#266B48"/>
<path d="M33.6228 28.8057H32.1942V23.3257C32.1942 22.6686 31.6571 22.1314 30.9999 22.1314C30.3428 22.1314 29.8057 22.6686 29.8057 23.3257V30C29.8057 30.6571 30.3428 31.1943 30.9999 31.1943H33.6228C34.2799 31.1943 34.8171 30.6571 34.8171 30C34.8171 29.3428 34.2742 28.8057 33.6228 28.8057Z" fill="#266B48"/>
</g>
<defs>
<clipPath id="clip0_2846_6">
<rect width="28" height="28" fill="white" transform="translate(17 16)"/>
</clipPath>
</defs>
</svg>
